<svg width="102" height="102" viewBox="0 0 102 102" fill="none" xmlns="http://www.w3.org/2000/svg">
<circle cx="51" cy="51" r="51" fill="#DDFFB1"/>
<path fill-rule="evenodd" clip-rule="evenodd" d="M74.6646 44.6632C78.0348 47.1509 80.0469 51.114 80.0469 55.2639V57.2674C80.0469 60.3488 78.9308 63.3416 76.9559 65.7006C78.805 66.5708 80.0469 68.417 80.0469 70.5625C80.0469 73.2455 78.1216 75.4883 75.47 75.8971L42.7864 80.9249C42.2593 81.0059 41.7227 81.0469 41.1927 81.0469H40.9688C37.2049 81.0469 33.908 79.0472 32.058 76.0601L27.0627 77.1705C26.8749 77.2134 26.6795 77.2344 26.4832 77.2344C25.0106 77.2344 23.8125 76.0363 23.8125 74.5637V74.1863C23.8125 73.9194 23.864 73.6659 23.9374 73.4219H23.8125C22.236 73.4219 20.9531 72.139 20.9531 70.5625C20.9531 68.986 22.236 67.7031 23.8125 67.7031H23.9374C23.864 67.4591 23.8125 67.2056 23.8125 66.9387V66.5613C23.8125 65.0887 25.0106 63.8906 26.4832 63.8906C26.6795 63.8906 26.8749 63.9116 27.0646 63.9554L32.058 65.0649C32.7662 63.9211 33.6859 62.9251 34.7658 62.1292L32.6575 56.2246C29.8267 55.8844 27.625 53.4673 27.625 50.5469C27.625 50.1056 27.6803 49.6605 27.7899 49.2182C26.4813 48.1383 25.7188 46.5438 25.7188 44.8281C25.7188 44.038 25.8808 43.264 26.1944 42.5483C24.1156 41.1376 22.8594 38.8034 22.8594 36.25C22.8594 33.0656 24.8733 30.2091 27.8242 29.1082C28.4495 26.6816 30.6312 24.9002 33.155 24.8154C34.1672 23.0568 36.0459 21.9531 38.1094 21.9531C40.5694 21.9531 42.7063 23.5143 43.4955 25.7761C45.3703 25.6579 47.1202 26.4614 48.2811 27.9092C50.0349 28.4191 51.4617 29.7411 52.0736 31.4949C55.3638 31.2947 58.125 33.9396 58.125 37.2031C58.125 38.4145 57.7476 39.5716 57.048 40.5391C57.7476 41.5065 58.125 42.6645 58.125 43.875C58.125 44.1991 58.0878 44.5203 58.0335 44.8377C58.126 44.9168 58.2155 44.9987 58.3004 45.0864C58.365 45.0335 58.4276 44.9786 58.4903 44.9238C58.5867 44.8393 58.6831 44.7549 58.7865 44.6775C59.2802 44.3096 59.8645 44.0761 60.4687 43.9617L60.0465 39.32C60.036 39.2085 60.0312 39.097 60.0312 38.9855C60.0312 36.9515 61.6859 35.2969 63.7198 35.2969H63.9677C66.0016 35.2969 67.6562 36.9515 67.6562 38.9855C67.6562 39.097 67.6515 39.2085 67.642 39.3191L67.2216 43.9408C67.8736 44.0399 68.5083 44.2801 69.0373 44.6842C69.1218 44.7489 69.2002 44.8197 69.2788 44.8905L69.2788 44.8905C69.3332 44.9396 69.3877 44.9887 69.4443 45.0359C70.1839 44.3049 71.1914 43.875 72.2665 43.875C73.1253 43.875 73.9774 44.1543 74.6646 44.6632ZM72.4219 55.4688C72.4219 51.8384 70.7234 48.3738 67.8783 46.1987C67.6324 46.009 67.3465 45.889 67.0491 45.8289L66.909 47.3711C67.987 47.8953 68.6094 48.694 68.6094 49.5938C68.6094 51.2236 66.5611 52.4531 63.8438 52.4531C63.6098 52.4531 63.3871 52.434 63.1641 52.4148L63.1327 52.4121C62.9869 53.3634 62.8906 54.3232 62.8906 55.2839V59.1536C62.8906 60.5718 63.0593 61.9844 63.3739 63.3674L71.017 64.5435C71.9348 62.8365 72.4219 60.9235 72.4219 58.9696V55.4688ZM63.9686 37.2031H63.7198C62.7372 37.2031 61.9375 38.0028 61.9375 38.9855C61.9375 39.0388 61.9394 39.0932 61.9442 39.1475L62.8096 48.6654L62.0824 48.8989C61.2474 49.1667 60.9844 49.5185 60.9844 49.5938C60.9844 49.8311 61.9985 50.5469 63.8438 50.5469C65.689 50.5469 66.7031 49.8311 66.7031 49.5938C66.7031 49.5185 66.4401 49.1667 65.6051 48.8999L64.8779 48.6664L65.7433 39.1475C65.749 39.0941 65.751 39.0398 65.751 38.9855C65.751 38.0028 64.9513 37.2031 63.9686 37.2031ZM60.7785 47.3711L60.6413 45.8604C60.3839 45.9299 60.139 46.0462 59.9264 46.2044C57.0079 48.3795 55.2656 51.8431 55.2656 55.4679V58.9687C55.2656 60.0648 55.4296 61.1447 55.7355 62.1922L61.3542 63.0566C61.1102 61.7709 60.9844 60.4632 60.9844 59.1536V55.2839C60.9844 54.1916 61.0959 53.0993 61.2665 52.0175C59.935 51.5219 59.0781 50.6441 59.0781 49.5938C59.0781 48.694 59.7005 47.8953 60.7785 47.3711ZM49.5469 57.2674C49.5469 58.6808 49.8233 60.0524 50.3408 61.362L53.6892 61.8776C53.4766 60.9245 53.3594 59.9523 53.3594 58.9696V55.4688C53.3594 52.0986 54.6671 48.8637 56.9145 46.4008C56.5266 46.0129 55.9967 45.7812 55.421 45.7812C54.9673 45.7812 54.5174 45.928 54.1552 46.1949C51.2701 48.3261 49.5469 51.7154 49.5469 55.2629V57.2674ZM50.6039 33.7052L50.4304 32.7244C50.1083 30.9011 48.5347 29.5781 46.6875 29.5781C45.1577 29.5781 43.7814 30.4884 43.18 31.8971L42.9112 32.528L42.2278 32.4728C42.1602 32.468 42.0925 32.4594 42.0258 32.4499C42.0165 32.4486 42.0073 32.4471 41.9981 32.4456C41.9729 32.4416 41.9477 32.4375 41.9219 32.4375C40.0547 32.4375 38.4411 33.8386 38.1694 35.6962L38.0808 36.3053L37.4889 36.4749C35.0479 37.1736 33.3438 39.4325 33.3438 41.9688C33.3438 44.1295 34.5447 46.0815 36.4786 47.0651L37.4336 47.5503L36.8398 48.4424C36.4233 49.0695 36.2031 49.7968 36.2031 50.5469C36.2031 51.8546 36.8713 53.0565 37.9893 53.7637L38.6498 54.1811L38.3715 54.9103C38.198 55.3668 38.1094 55.8224 38.1094 56.2666C38.1094 58.3835 39.8193 60.1067 41.9219 60.1067C42.2116 60.1277 42.5004 60.1572 42.7864 60.2011L48.2068 61.0351C47.8389 59.8151 47.6406 58.556 47.6406 57.2683V55.2639C47.6406 54.6787 47.6902 54.0992 47.7683 53.5254C45.2569 51.5286 41.0135 51.5 40.9688 51.5V49.5938C41.1479 49.5938 44.6049 49.6176 47.5024 51.1035C46.921 49.1744 46.2624 47.3739 45.5943 45.7317C43.6975 43.7959 39.6372 43.7263 38.2037 43.8702L38.0141 41.9735C38.1999 41.9545 41.4396 41.658 44.2904 42.7312C42.5986 39.0913 41.1451 36.8047 41.1193 36.7656L42.7235 35.7344C42.8435 35.9212 44.7155 38.8673 46.6989 43.4213C48.1467 39.6231 50.7249 37.5177 50.8574 37.4119L51.4531 38.1562L52.0498 38.8987L52.0494 38.899C51.9978 38.9417 48.7437 41.6351 47.8646 46.2788C48.2554 47.3015 48.6347 48.3785 48.996 49.5032C49.9224 47.617 51.2882 45.9423 53.0229 44.6623C53.7101 44.1543 54.5622 43.875 55.421 43.875C55.6917 43.875 55.9547 43.9103 56.213 43.9617C56.213 43.9468 56.2145 43.9322 56.2159 43.9177C56.2173 43.9034 56.2188 43.8892 56.2188 43.875C56.2188 42.8733 55.8299 41.9259 55.1246 41.2072L54.4688 40.5391L55.1246 39.8709C55.8299 39.1523 56.2188 38.2049 56.2188 37.2031C56.2188 35.1005 54.5088 33.3906 52.4062 33.3906C52.1432 33.3906 51.8715 33.423 51.5761 33.4888L50.6039 33.7052ZM33.3438 54.3594H34.0157L36.4319 61.1247C36.9542 60.8721 37.4984 60.6595 38.0646 60.4956C36.9237 59.4453 36.2031 57.9403 36.2031 56.2656C36.2031 55.8243 36.2584 55.3802 36.368 54.9379C35.0594 53.8571 34.2969 52.2625 34.2969 50.5469C34.2969 49.7567 34.4589 48.9828 34.7725 48.267C32.6937 46.8564 31.4375 44.5222 31.4375 41.9688C31.4375 38.7844 33.4515 35.9278 36.4023 34.827C37.0276 32.4003 39.2093 30.6189 41.7332 30.5341C42.4737 29.2474 43.6804 28.3171 45.0815 27.9073C44.6831 27.7681 44.2666 27.6719 43.8281 27.6719C43.5651 27.6719 43.2934 27.7043 42.998 27.77L42.0258 27.9864L41.8523 27.0056C41.5301 25.1823 39.9565 23.8594 38.1094 23.8594C36.5796 23.8594 35.2033 24.7696 34.6028 26.1774L34.3331 26.8112L33.6468 26.754C33.5801 26.7483 33.5153 26.7397 33.4505 26.7311L33.4505 26.7311C33.441 26.7299 33.4315 26.7284 33.422 26.7269C33.3962 26.7228 33.3702 26.7188 33.3438 26.7188C31.4766 26.7188 29.8629 28.1198 29.5903 29.9775L29.5017 30.5865L28.9098 30.7562C26.4698 31.4548 24.7656 33.7137 24.7656 36.25C24.7656 38.4107 25.9666 40.3627 27.9005 41.3464L28.8555 41.8315L28.2617 42.7236C27.8452 43.3508 27.625 44.078 27.625 44.8281C27.625 46.1358 28.2931 47.3377 29.4121 48.0449L30.0726 48.4624L29.7934 49.1915C29.6199 49.6462 29.5312 50.1018 29.5312 50.5469C29.5312 52.6495 31.2412 54.3594 33.3438 54.3594ZM25.7188 66.5613V66.9387C25.7188 67.36 26.0619 67.7031 26.4832 67.7031H30.8914C30.9762 67.4038 31.0753 67.1112 31.1859 66.8234L26.65 65.815C26.182 65.714 25.7188 66.0828 25.7188 66.5613ZM23.8125 69.6094C23.2873 69.6094 22.8594 70.0373 22.8594 70.5625C22.8594 71.0877 23.2873 71.5156 23.8125 71.5156H26.4832H30.533C30.5044 71.2011 30.4844 70.8847 30.4844 70.5625C30.4844 70.2403 30.5044 69.9239 30.532 69.6094H26.4832H23.8125ZM25.7188 74.5637C25.7188 75.0412 26.1963 75.4072 26.648 75.31L31.1849 74.3016C31.0753 74.0138 30.9752 73.7212 30.8904 73.4219H26.4832C26.0619 73.4219 25.7188 73.765 25.7188 74.1863V74.5637ZM75.1812 74.0128C76.8958 73.7488 78.1406 72.2981 78.1406 70.5625C78.1406 68.8269 76.8958 67.3762 75.1802 67.1112L42.4976 62.0835C42.0658 62.0177 41.6264 61.9844 41.1927 61.9844H40.9688C36.2393 61.9844 32.3906 65.8331 32.3906 70.5625C32.3906 75.2919 36.2393 79.1406 40.9688 79.1406H41.1927C41.6264 79.1406 42.0658 79.1073 42.4985 79.0405L75.1812 74.0128ZM74.8895 65.1383C76.954 63.0357 78.1406 60.1992 78.1406 57.2674V55.2639C78.1406 51.7164 76.4174 48.3261 73.5323 46.1968C73.1701 45.928 72.7212 45.7812 72.2665 45.7812C71.7166 45.7812 71.2057 45.9995 70.8206 46.3627C73.0376 48.8293 74.3281 52.0805 74.3281 55.4679V58.9687C74.3281 61.0141 73.8659 63.0185 72.9957 64.8466L74.8895 65.1383ZM41.9219 65.7969H40.0156V75.3281H41.9219V65.7969ZM47.6406 65.7969H49.5469V75.3281H47.6406V65.7969ZM57.1719 65.7969H55.2656V75.3281H57.1719V65.7969ZM62.8906 67.7031H64.7969V73.4219H62.8906V67.7031ZM72.4219 68.6562H70.5156V72.4688H72.4219V68.6562Z" fill="#1B1713"/>
</svg>
