<svg width="102" height="102" viewBox="0 0 102 102" fill="none" xmlns="http://www.w3.org/2000/svg">
<circle cx="51" cy="51" r="51" fill="#DDFFB1"/>
<path d="M64.9078 45.7152C64.7849 45.461 64.7322 45.1781 64.7555 44.8969L65.5724 35.0249C65.6642 33.9138 65.2528 32.8368 64.4435 32.07C63.6345 31.3032 62.536 30.9504 61.4324 31.1015C60.5829 31.218 59.7608 31.4953 59.0157 31.9131C58.9569 31.8325 58.8962 31.7528 58.8315 31.6756C57.2941 29.8414 54.5515 29.5996 52.7175 31.1363L46.0739 36.6964V35.4526C46.0739 35.3598 46.1015 35.2705 46.1539 35.1939L47.5318 33.1776C47.7961 32.7907 47.6968 32.2628 47.3099 31.9984C46.9229 31.7338 46.395 31.8334 46.1308 32.2202L44.7529 34.2366C44.5071 34.5963 44.3771 35.0168 44.3771 35.4526V38.1165L39.09 42.5415V34.5507C39.09 33.6361 39.3627 32.7536 39.8787 31.9985L44.7313 24.897C45.1297 24.3139 45.7313 23.921 46.4253 23.7904C47.1192 23.6599 47.8224 23.8073 48.4055 24.2058C48.9885 24.6041 49.3815 25.2058 49.512 25.8997C49.6426 26.5936 49.4952 27.297 49.0968 27.8799L48.2064 29.183C47.9421 29.57 48.0415 30.0978 48.4282 30.3622C48.8149 30.6265 49.343 30.5271 49.6073 30.1403L50.4976 28.8372C51.1517 27.88 51.3939 26.7254 51.1795 25.5861C50.9651 24.4467 50.3199 23.4589 49.3627 22.8048C48.4056 22.1508 47.251 21.9086 46.1115 22.1229C44.9721 22.3373 43.9844 22.9825 43.3303 23.9397L38.4778 31.0413C37.7683 32.0797 37.3932 33.2933 37.3932 34.5508V43.9617L34.8487 46.0912C33.0199 47.6218 32.0398 49.9549 32.2267 52.3324L32.7669 59.1993C32.8018 59.6439 33.1733 59.9813 33.6118 59.9812C33.634 59.9812 33.6566 59.9803 33.6792 59.9786C34.1462 59.9419 34.4952 59.5334 34.4584 59.0664L33.9183 52.1994C33.7743 50.3683 34.5293 48.5713 35.9378 47.3925L53.8069 32.4373C54.9241 31.501 56.5948 31.6483 57.5311 32.7655C58.4673 33.8827 58.3201 35.5534 57.2028 36.4897L47.9012 44.2848C47.3234 44.4245 46.7703 44.7024 46.2909 45.1195L41.7444 49.0768C41.391 49.3845 41.3539 49.9203 41.6615 50.2737C41.9692 50.6271 42.5049 50.6641 42.8585 50.3566L47.405 46.3993C48.1957 45.7107 49.3494 45.7042 50.1481 46.3836L57.0243 52.2324C57.5622 52.6899 57.8897 53.3295 57.9465 54.0333C58.0034 54.7373 57.7827 55.4211 57.3251 55.9588C56.9906 56.352 56.5486 56.6348 56.0584 56.7794L51.2475 52.6873C49.8046 51.4599 47.72 51.4719 46.291 52.7156L41.7445 56.6729C41.3911 56.9806 41.354 57.5165 41.6616 57.8698C41.9693 58.2233 42.505 58.2603 42.8586 57.9528L47.4051 53.9954C48.1958 53.307 49.3495 53.3002 50.1482 53.9797L57.0244 59.8285C57.5623 60.286 57.8898 60.9256 57.9466 61.6294C58.0035 62.3334 57.7828 63.0172 57.3252 63.5549C56.8678 64.0928 56.2282 64.4203 55.5244 64.4771C54.8195 64.5338 54.1365 64.3132 53.5989 63.8557L49.3425 60.2353C49.0056 59.9487 48.5055 59.969 48.1928 60.2815L46.9296 61.5447C46.5983 61.8762 46.5983 62.4132 46.9296 62.7446C47.261 63.0758 47.7982 63.0758 48.1294 62.7446L48.8392 62.0347L52.4994 65.1481C53.2913 65.8218 54.276 66.1827 55.3045 66.1827C55.4227 66.1827 55.5417 66.1778 55.6608 66.1682C56.8163 66.075 57.8664 65.5372 58.6176 64.6541C59.3688 63.771 59.7311 62.6483 59.6378 61.4927C59.5446 60.3371 59.0069 59.287 58.1237 58.5358L57.4913 57.9979C57.914 57.7523 58.2961 57.4358 58.6176 57.0579C60.1682 55.235 59.9468 52.4903 58.1237 50.9395L55.0751 48.3464L56.9177 38.9421L58.2928 37.7896C59.1814 37.0451 59.7268 35.999 59.8287 34.844C59.8701 34.3739 59.8347 33.9091 59.7295 33.4627C60.3202 33.1104 60.9791 32.8759 61.6631 32.7822C62.2547 32.7008 62.843 32.8902 63.2767 33.3012C63.7103 33.7122 63.9308 34.2892 63.8816 34.8846L63.0647 44.7566C63.0164 45.3396 63.1257 45.9265 63.3805 46.4534L64.8912 49.5778C66.7946 53.5147 66.859 58.0604 65.0677 62.0497L64.0964 64.213C63.9044 64.6404 64.0954 65.1426 64.5228 65.3344C64.6357 65.3851 64.7537 65.4091 64.8699 65.4091C65.1936 65.4091 65.503 65.2226 65.6443 64.908L66.6156 62.7447C68.6129 58.297 68.541 53.2286 66.4188 48.8391L64.9078 45.7152ZM53.5928 47.0863L51.2473 45.0912C50.9521 44.8402 50.63 44.6419 50.2923 44.4945L54.8486 40.6763L53.5928 47.0863Z" fill="#1B1713"/>
<path d="M63.729 67.1039C63.3015 66.9121 62.7995 67.1027 62.6076 67.5304L60.4348 72.369C60.3857 72.4783 60.3604 72.5968 60.3604 72.7166V79.1514C60.3604 79.6201 60.7401 79.9998 61.2087 79.9998C61.6774 79.9998 62.0571 79.6201 62.0571 79.1514V72.8983L64.1555 68.2254C64.3474 67.798 64.1564 67.2959 63.729 67.1039Z" fill="#1B1713"/>
<path d="M58.8035 27.2797C59.2721 27.2797 59.6518 26.9 59.6518 26.4313V22.8484C59.6518 22.3797 59.2721 22 58.8035 22C58.3348 22 57.9551 22.3797 57.9551 22.8484V26.4313C57.9551 26.8998 58.3349 27.2797 58.8035 27.2797Z" fill="#1B1713"/>
<path d="M62.4249 28.1244C62.5557 28.1972 62.6972 28.2316 62.837 28.2316C63.1349 28.2316 63.4239 28.0745 63.5791 27.7959L65.3223 24.6656C65.5503 24.2563 65.4032 23.7395 64.994 23.5116C64.5846 23.2837 64.0679 23.4307 63.8399 23.84L62.0967 26.9702C61.8686 27.3797 62.0157 27.8963 62.4249 28.1244Z" fill="#1B1713"/>
<path d="M69.6675 27.8431C69.4208 27.4448 68.8981 27.322 68.4996 27.5686L65.4535 29.4551C65.0552 29.7018 64.9323 30.2247 65.179 30.623C65.3395 30.8822 65.617 31.0248 65.901 31.0248C66.0535 31.0248 66.2078 30.9838 66.3469 30.8976L69.393 29.0111C69.7914 28.7645 69.9144 28.2415 69.6675 27.8431Z" fill="#1B1713"/>
<path d="M37.2143 68.445C35.8837 66.7729 35.034 64.7665 34.7571 62.6429C34.6965 62.1785 34.2713 61.8518 33.8061 61.9113C33.3416 61.9719 33.014 62.3977 33.0746 62.8623C33.3913 65.2919 34.3637 67.5878 35.8865 69.5014L39.3868 73.9005V79.0959C39.3868 79.5646 39.7667 79.9443 40.2352 79.9443C40.7038 79.9443 41.0836 79.5646 41.0836 79.0959V73.6041C41.0836 73.4123 41.0186 73.226 40.8991 73.0759L37.2143 68.445Z" fill="#1B1713"/>
</svg>
