<svg width="102" height="102" viewBox="0 0 102 102" fill="none" xmlns="http://www.w3.org/2000/svg">
<circle cx="51" cy="51" r="51" fill="#DDFFB1"/>
<path d="M73.0249 33.7118H74.7552C75.3588 33.7118 75.8482 33.2224 75.8482 32.6188C75.8482 32.0152 75.3588 31.5258 74.7552 31.5258H70.6017C69.9981 31.5258 69.5087 32.0152 69.5087 32.6188V36.7723C69.5087 37.3759 69.9981 37.8654 70.6017 37.8654C71.2053 37.8654 71.6947 37.3759 71.6947 36.7723V35.5697C75.0112 40.0097 76.8139 45.3969 76.8139 51C76.8139 65.2339 65.2339 76.8139 51 76.8139C36.7661 76.8139 25.1861 65.2339 25.1861 51C25.1861 36.7661 36.7661 25.1861 51 25.1861C52.0527 25.1861 53.1122 25.25 54.1492 25.376C54.7477 25.4484 55.2934 25.0222 55.3662 24.4229C55.4391 23.8237 55.0124 23.2787 54.4131 23.2059C53.2888 23.0693 52.1406 23 51 23C43.5209 23 36.4894 25.9125 31.201 31.201C25.9125 36.4894 23 43.5209 23 51C23 58.4791 25.9125 65.5106 31.201 70.799C36.4894 76.0875 43.5209 79 51 79C58.4791 79 65.5106 76.0875 70.799 70.799C76.0875 65.5106 79 58.4791 79 51C79 44.6887 76.8915 38.6298 73.0249 33.7118Z" fill="#1B1713"/>
<path d="M34.8566 39.5069C34.3465 39.184 33.6713 39.3359 33.3484 39.8457C30.8531 43.7868 29.7484 48.5264 30.238 53.1915C30.7348 57.9259 32.8657 62.3905 36.2381 65.763C40.308 69.833 45.6542 71.868 51.0004 71.868C56.3466 71.868 61.6927 69.8331 65.7627 65.763C73.9026 57.6231 73.9026 44.3784 65.7627 36.2386C62.3954 32.8714 57.9381 30.7413 53.2116 30.2407C48.5551 29.7472 43.8206 30.8432 39.8812 33.3262C39.3704 33.6481 39.2175 34.3231 39.5393 34.8337C39.8612 35.3445 40.5361 35.4974 41.0468 35.1756C48.4726 30.4953 58.0003 31.5678 64.2168 37.7844C71.5044 45.0719 71.5044 56.9296 64.2168 64.2172C56.9293 71.5049 45.0715 71.5049 37.784 64.2172C31.6534 58.0866 30.5647 48.3287 35.1955 41.0153C35.5182 40.5051 35.3666 39.8299 34.8566 39.5069Z" fill="#1B1713"/>
<path d="M65.2097 52.1099H66.5577C67.1612 52.1099 67.6507 51.6204 67.6507 51.0169C67.6507 50.4133 67.1612 49.9238 66.5577 49.9238H65.2097C64.6062 49.9238 64.1167 50.4133 64.1167 51.0169C64.1167 51.6204 64.6061 52.1099 65.2097 52.1099Z" fill="#1B1713"/>
<path d="M34.3496 50.9817C34.3496 51.5853 34.8391 52.0747 35.4426 52.0747H36.7906C37.3941 52.0747 37.8836 51.5853 37.8836 50.9817C37.8836 50.3781 37.3941 49.8887 36.7906 49.8887H35.4426C34.8391 49.8887 34.3496 50.378 34.3496 50.9817Z" fill="#1B1713"/>
<path d="M52.1109 36.7906V35.4426C52.1109 34.8391 51.6214 34.3496 51.0178 34.3496C50.4143 34.3496 49.9248 34.8391 49.9248 35.4426V36.7906C49.9248 37.3941 50.4143 37.8836 51.0178 37.8836C51.6214 37.8836 52.1109 37.3941 52.1109 36.7906Z" fill="#1B1713"/>
<path d="M49.8892 65.2102V66.5582C49.8892 67.1617 50.3786 67.6512 50.9822 67.6512C51.5858 67.6512 52.0752 67.1617 52.0752 66.5582V65.2102C52.0752 64.6066 51.5858 64.1172 50.9822 64.1172C50.3786 64.1172 49.8892 64.6065 49.8892 65.2102Z" fill="#1B1713"/>
<path d="M45.5213 43.9749C45.0943 43.5482 44.4024 43.5482 43.9754 43.9749C43.5486 44.4017 43.5486 45.0938 43.9754 45.5208L47.6798 49.2252C47.3959 49.7542 47.2345 50.3583 47.2345 50.9995C47.2345 53.0758 48.9237 54.765 51 54.765C53.0763 54.765 54.7655 53.0758 54.7655 50.9995C54.7655 50.3583 54.6039 49.7542 54.3202 49.2252L61.7947 41.7507C62.2215 41.3239 62.2215 40.6317 61.7947 40.2048C61.3677 39.7781 60.6758 39.7781 60.2488 40.2048L52.7743 47.6793C52.2453 47.3954 51.6412 47.234 51 47.234C50.3588 47.234 49.7547 47.3955 49.2257 47.6793L45.5213 43.9749ZM52.5794 50.9995C52.5794 51.8704 51.8709 52.5789 51 52.5789C50.1291 52.5789 49.4206 51.8704 49.4206 50.9995C49.4206 50.1286 50.1291 49.4201 51 49.4201C51.8709 49.4201 52.5794 50.1286 52.5794 50.9995Z" fill="#1B1713"/>
<path d="M37.7828 37.7838C37.9872 37.5805 38.104 37.2985 38.104 37.011C38.104 36.7235 37.9872 36.4426 37.7828 36.2382C37.5795 36.035 37.2985 35.918 37.01 35.918C36.7226 35.918 36.4406 36.0349 36.2372 36.2382C36.0341 36.4415 35.917 36.7235 35.917 37.011C35.917 37.2996 36.0339 37.5805 36.2372 37.7838C36.4406 37.987 36.7226 38.104 37.01 38.104C37.2985 38.104 37.5795 37.987 37.7828 37.7838Z" fill="#1B1713"/>
<path d="M58.5711 26.2661C58.8597 26.2661 59.1417 26.1502 59.3449 25.9459C59.5482 25.7426 59.6653 25.4616 59.6653 25.1731C59.6653 24.8856 59.5483 24.6036 59.3449 24.4003C59.1417 24.1971 58.8597 24.0801 58.5711 24.0801C58.2836 24.0801 58.0016 24.197 57.7984 24.4003C57.5951 24.6036 57.478 24.8856 57.478 25.1731C57.478 25.4617 57.595 25.7426 57.7984 25.9459C58.0016 26.1502 58.2836 26.2661 58.5711 26.2661Z" fill="#1B1713"/>
</svg>
