<svg width="102" height="102" viewBox="0 0 102 102" fill="none" xmlns="http://www.w3.org/2000/svg">
<circle cx="51" cy="51" r="51" fill="#DDFFB1"/>
<path d="M77.939 63.2102H66.3618C66.8346 62.4903 67.1107 61.6302 67.1107 60.7064C67.1107 59.2381 66.4146 57.9302 65.3358 57.0926V53.7007L65.8544 54.2194C66.0566 54.4214 66.3215 54.5226 66.5864 54.5226C66.8513 54.5226 67.1162 54.4214 67.3184 54.2194L71.3874 50.1505C71.5815 49.9563 71.6906 49.693 71.6906 49.4185C71.6906 49.144 71.5815 48.8807 71.3874 48.6865L67.3184 44.6176C67.1242 44.4235 66.8609 44.3144 66.5864 44.3144C66.3119 44.3144 66.0485 44.4235 65.8544 44.6176L65.3358 45.1362V30.5898C65.3358 30.0182 64.8723 29.5547 64.3007 29.5547H60.9958V28.7342C60.9959 26.6752 59.3209 25 57.2617 25C55.2026 25 53.5275 26.6752 53.5275 28.7342V29.5547H49.4022V28.7342C49.4022 26.6752 47.7271 25 45.668 25C43.6088 25 41.9337 26.6752 41.9337 28.7342V29.5547H37.8084V28.7342C37.8084 26.6752 36.1334 25 34.0742 25C32.0151 25 30.34 26.6752 30.34 28.7342V29.5547H27.0352C26.4635 29.5547 26 30.0182 26 30.5898V76.9648C26 77.5365 26.4635 78 27.0352 78H41.0101C41.5817 78 42.0452 77.5365 42.0452 76.9648C42.0452 76.3932 41.5817 75.9297 41.0101 75.9297H28.0703V31.625H35.7381V32.4455C35.7381 33.3629 34.9917 34.1094 34.0742 34.1094C33.5026 34.1094 33.0391 34.5729 33.0391 35.1445C33.0391 35.7161 33.5026 36.1797 34.0742 36.1797C36.1334 36.1797 37.8084 34.5045 37.8084 32.4455V31.625H47.3319V32.4455C47.3319 33.3629 46.5854 34.1094 45.668 34.1094C45.0964 34.1094 44.6328 34.5729 44.6328 35.1445C44.6328 35.7161 45.0964 36.1797 45.668 36.1797C47.7271 36.1797 49.4022 34.5045 49.4022 32.4455V31.625H58.9256V32.4455C58.9256 33.3629 58.1792 34.1094 57.2617 34.1094C56.6901 34.1094 56.2266 34.5729 56.2266 35.1445C56.2266 35.7161 56.6901 36.1797 57.2617 36.1797C59.3209 36.1797 60.9959 34.5045 60.9959 32.4455V31.625H63.2656V47.2066L61.7857 48.6865C61.3814 49.0908 61.3814 49.7462 61.7857 50.1506L63.2656 51.6305V56.1911C63.0282 56.1529 62.7848 56.1323 62.5367 56.1323C60.0145 56.1323 57.9625 58.1842 57.9625 60.7065C57.9625 61.6302 58.2386 62.4904 58.7115 63.2103H52.5C51.9284 63.2103 51.4648 63.6739 51.4648 64.2455C51.4648 69.1714 54.0682 73.5 57.9707 75.9298H50.3262C49.7546 75.9298 49.291 76.3933 49.291 76.9649C49.291 77.5366 49.7546 78.0001 50.3262 78.0001H65.2195C72.8039 78.0001 78.9741 71.8298 78.9741 64.2455C78.9741 63.6737 78.5106 63.2102 77.939 63.2102ZM32.4103 29.5547V28.7342C32.4103 27.8168 33.1568 27.0703 34.0742 27.0703C34.9917 27.0703 35.7381 27.8168 35.7381 28.7342V29.5547H32.4103ZM44.0041 29.5547V28.7342C44.0041 27.8168 44.7505 27.0703 45.668 27.0703C46.5854 27.0703 47.3319 27.8168 47.3319 28.7342V29.5547H44.0041ZM55.5978 29.5547V28.7342C55.5978 27.8168 56.3443 27.0703 57.2617 27.0703C58.1792 27.0703 58.9256 27.8168 58.9256 28.7342V29.5547H55.5978ZM66.5865 46.8136L69.1915 49.4186L66.5865 52.0236L63.9815 49.4186L66.5865 46.8136ZM60.0329 60.7065C60.0329 59.3259 61.1562 58.2026 62.5368 58.2026C63.9174 58.2026 65.0406 59.3259 65.0406 60.7065C65.0406 62.0871 63.9174 63.2103 62.5368 63.2103C61.1562 63.2103 60.0329 62.087 60.0329 60.7065ZM65.2195 75.9297C59.1255 75.9297 54.1063 71.2402 53.5806 65.2805H76.8583C76.3327 71.2402 71.3134 75.9297 65.2195 75.9297Z" fill="#1B1713"/>
<path d="M69.3745 59.4885C70.4395 60.5534 71.8556 61.1399 73.3618 61.1399C74.8679 61.1399 76.2839 60.5534 77.349 59.4885C78.414 58.4235 79.0004 57.0074 79.0004 55.5012C79.0004 53.9951 78.4138 52.5791 77.3489 51.514C76.9445 51.1099 76.2893 51.1099 75.8849 51.514L69.3744 58.0244C68.9702 58.4288 68.9702 59.0842 69.3745 59.4885ZM76.5086 53.8183C77.2298 55.1682 77.0219 56.8876 75.885 58.0245C74.7482 59.1614 73.0286 59.3694 71.6787 58.6482L76.5086 53.8183Z" fill="#1B1713"/>
<path d="M54.5521 44.8887C53.9805 44.8887 53.5169 45.3522 53.5169 45.9238V46.3325C52.8307 46.5349 52.2128 46.9362 51.744 47.5006C51.0484 48.3382 50.764 49.4325 50.9639 50.5028L51.9928 56.0129C52.2228 57.2446 53.299 58.1386 54.5521 58.1386C55.8051 58.1386 56.8814 57.2446 57.1114 56.013L58.1402 50.5028C58.3401 49.4325 58.0558 48.3382 57.3601 47.5006C56.8913 46.9361 56.2734 46.5348 55.5872 46.3325V45.9238C55.5872 45.3521 55.1238 44.8887 54.5521 44.8887ZM55.7674 48.8234C56.0685 49.1859 56.1917 49.6596 56.1051 50.1228L55.0763 55.6331C55.0292 55.8853 54.8087 56.0684 54.5522 56.0684C54.2957 56.0684 54.0752 55.8852 54.0281 55.633L52.9992 50.1228C52.9127 49.6595 53.0359 49.1859 53.3369 48.8234C53.638 48.4609 54.081 48.2529 54.5523 48.2529C55.0236 48.2529 55.4663 48.4609 55.7674 48.8234Z" fill="#1B1713"/>
<path d="M34.3919 41.8326C34.1995 41.639 33.9324 41.5293 33.6602 41.5293C33.3879 41.5293 33.1208 41.639 32.9283 41.8326C32.7358 42.0251 32.625 42.2922 32.625 42.5645C32.625 42.8367 32.7357 43.1027 32.9283 43.2963C33.1208 43.4887 33.3879 43.5996 33.6602 43.5996C33.9324 43.5996 34.1995 43.4888 34.3919 43.2963C34.5844 43.1027 34.6953 42.8367 34.6953 42.5645C34.6953 42.2922 34.5846 42.0251 34.3919 41.8326Z" fill="#1B1713"/>
<path d="M47.9533 41.5273H38.8018C38.2301 41.5273 37.7666 41.9909 37.7666 42.5625C37.7666 43.1341 38.2301 43.5977 38.8018 43.5977H47.9533C48.5249 43.5977 48.9884 43.1341 48.9884 42.5625C48.9884 41.9909 48.525 41.5273 47.9533 41.5273Z" fill="#1B1713"/>
<path d="M34.3919 49.2272C34.1995 49.0347 33.9324 48.9238 33.6602 48.9238C33.3879 48.9238 33.1208 49.0346 32.9283 49.2272C32.7358 49.4197 32.625 49.6867 32.625 49.959C32.625 50.2313 32.7357 50.4983 32.9283 50.6908C33.1209 50.8834 33.3879 50.9941 33.6602 50.9941C33.9324 50.9941 34.1995 50.8835 34.3919 50.6908C34.5844 50.4983 34.6953 50.2313 34.6953 49.959C34.6953 49.6867 34.5846 49.4197 34.3919 49.2272Z" fill="#1B1713"/>
<path d="M47.9533 48.9238H38.8018C38.2301 48.9238 37.7666 49.3874 37.7666 49.959C37.7666 50.5306 38.2301 50.9941 38.8018 50.9941H47.9533C48.5249 50.9941 48.9884 50.5306 48.9884 49.959C48.9884 49.3874 48.525 48.9238 47.9533 48.9238Z" fill="#1B1713"/>
<path d="M34.3919 56.6226C34.1995 56.4301 33.9324 56.3203 33.6602 56.3203C33.3879 56.3203 33.1208 56.4301 32.9283 56.6226C32.7358 56.8162 32.625 57.0832 32.625 57.3555C32.625 57.6277 32.7357 57.8938 32.9283 58.0864C33.1208 58.28 33.3879 58.3906 33.6602 58.3906C33.9324 58.3906 34.1995 58.28 34.3919 58.0864C34.5844 57.8939 34.6953 57.6277 34.6953 57.3555C34.6953 57.0832 34.5846 56.8163 34.3919 56.6226Z" fill="#1B1713"/>
<path d="M47.9533 56.3184H38.8018C38.2301 56.3184 37.7666 56.7819 37.7666 57.3535C37.7666 57.9251 38.2301 58.3887 38.8018 58.3887H47.9533C48.5249 58.3887 48.9884 57.9251 48.9884 57.3535C48.9884 56.7819 48.525 56.3184 47.9533 56.3184Z" fill="#1B1713"/>
<path d="M33.6602 63.7148C33.3879 63.7148 33.1208 63.8255 32.9283 64.0181C32.7358 64.2108 32.625 64.4778 32.625 64.75C32.625 65.0222 32.7357 65.2893 32.9283 65.4818C33.1208 65.6744 33.3879 65.7852 33.6602 65.7852C33.9324 65.7852 34.1995 65.6744 34.3919 65.4818C34.5846 65.2893 34.6953 65.0222 34.6953 64.75C34.6953 64.4778 34.5846 64.2107 34.3919 64.0181C34.1995 63.8255 33.9324 63.7148 33.6602 63.7148Z" fill="#1B1713"/>
<path d="M47.9533 63.7148H38.8018C38.2301 63.7148 37.7666 64.1784 37.7666 64.75C37.7666 65.3216 38.2301 65.7852 38.8018 65.7852H47.9533C48.5249 65.7852 48.9884 65.3216 48.9884 64.75C48.9884 64.1784 48.525 63.7148 47.9533 63.7148Z" fill="#1B1713"/>
<path d="M45.668 75.9297C45.3957 75.9297 45.1287 76.0403 44.9361 76.233C44.7436 76.4256 44.6328 76.6926 44.6328 76.9648C44.6328 77.2371 44.7435 77.5042 44.9361 77.6966C45.1287 77.8891 45.3957 78 45.668 78C45.9402 78 46.2073 77.8892 46.3997 77.6966C46.5924 77.5042 46.7031 77.2371 46.7031 76.9648C46.7031 76.6926 46.5924 76.4255 46.3997 76.233C46.2073 76.0403 45.9402 75.9297 45.668 75.9297Z" fill="#1B1713"/>
</svg>
