<svg width="54" height="54" viewBox="0 0 54 54" fill="none" xmlns="http://www.w3.org/2000/svg">
<circle cx="27" cy="27" r="27" fill="#43311F"/>
<path d="M31.9824 40C36.4002 40 40 36.2294 40 31.6018V22.3982C40 17.7706 36.4002 14 31.9824 14H22.0176C17.5998 14 14 17.7706 14 22.3982V31.6018C14 36.2294 17.5998 40 22.0176 40H31.9824ZM15.7672 31.6018V22.3982C15.7672 18.7989 18.5651 15.8682 22.0013 15.8682H31.966C35.4021 15.8682 38.2001 18.7989 38.2001 22.3982V31.6018C38.2001 35.2011 35.4021 38.1318 31.966 38.1318H22.0013C18.5815 38.1318 15.7672 35.2011 15.7672 31.6018Z" fill="white"/>
<path d="M34.0251 21.301C34.8433 21.301 35.5141 20.5983 35.5141 19.7413C35.5141 18.8843 34.8433 18.1816 34.0251 18.1816C33.207 18.1816 32.5361 18.8843 32.5361 19.7413C32.5525 20.5983 33.207 21.301 34.0251 21.301Z" fill="white"/>
<path d="M34.1417 26.9898C34.1417 22.8593 30.9347 19.5 26.9913 19.5C23.0479 19.5 19.8408 22.8593 19.8408 26.9898C19.8408 31.1203 23.0479 34.4796 26.9913 34.4796C30.9347 34.4796 34.1417 31.1203 34.1417 26.9898ZM21.6407 26.9898C21.6407 23.8876 24.046 21.3682 27.0076 21.3682C29.9693 21.3682 32.3746 23.8876 32.3746 26.9898C32.3746 30.092 29.9693 32.6114 27.0076 32.6114C24.046 32.6114 21.6407 30.092 21.6407 26.9898Z" fill="white"/>
</svg>
