<svg width="160" height="80" viewBox="0 0 160 80" fill="none" xmlns="http://www.w3.org/2000/svg">
<path d="M24.9191 56.3042V79.7972H21.0382V63.707L13.8212 79.7972H11.1319L3.88084 63.707V79.7972H0V56.3042H4.18722L12.4936 74.7268L20.7659 56.3042H24.9191Z" fill="#403D1C"/>
<path d="M42.5815 74.9972H32.6752L30.973 79.7972H26.922L35.3986 56.2704H39.8922L48.3687 79.7972H44.2836L42.5815 74.9972ZM41.4921 71.8535L37.6454 60.9352L33.7645 71.8535H41.4921Z" fill="#403D1C"/>
<path d="M69.7905 79.7972H65.9096L54.2331 62.2535V79.7972H50.3522V56.2704H54.2331L65.9096 73.7803V56.2704H69.7905V79.7972Z" fill="#403D1C"/>
<path d="M90.3079 63.0648C89.6952 61.893 88.8441 61.0141 87.7548 60.4282C86.6654 59.8197 85.4058 59.5155 83.9761 59.5155C82.4101 59.5155 81.0144 59.8648 79.7888 60.5634C78.5633 61.262 77.5988 62.2535 76.8952 63.538C76.2144 64.8225 75.874 66.3099 75.874 68C75.874 69.6901 76.2144 71.1887 76.8952 72.4958C77.5988 73.7803 78.5633 74.7718 79.7888 75.4704C81.0144 76.169 82.4101 76.5183 83.9761 76.5183C86.0867 76.5183 87.8002 75.9324 89.1165 74.7606C90.4328 73.5887 91.2384 72 91.5335 69.9944H82.6484V66.9183H95.6867V69.9268C95.437 71.7521 94.7789 73.431 93.7122 74.9634C92.6682 76.4958 91.2952 77.7239 89.5931 78.6479C87.9136 79.5493 86.0413 80 83.9761 80C81.7519 80 79.7207 79.493 77.8825 78.4789C76.0442 77.4423 74.5803 76.0113 73.491 74.1859C72.4243 72.3606 71.891 70.2986 71.891 68C71.891 65.7014 72.4243 63.6394 73.491 61.8141C74.5803 59.9887 76.0442 58.569 77.8825 57.5549C79.7434 56.5183 81.7746 56 83.9761 56C86.4952 56 88.7306 56.6197 90.6824 57.8592C92.6569 59.0761 94.0867 60.8113 94.9718 63.0648H90.3079Z" fill="#403D1C"/>
<path d="M101.693 56.3042V79.7972H97.8122V56.3042H101.693Z" fill="#403D1C"/>
<path d="M119.35 74.9972H109.444L107.741 79.7972H103.69L112.167 56.2704H116.661L125.137 79.7972H121.052L119.35 74.9972ZM118.261 71.8535L114.414 60.9352L110.533 71.8535H118.261Z" fill="#403D1C"/>
<path d="M139.41 79.7972L133.963 70.4H131.001V79.7972H127.121V56.3042H135.291C137.106 56.3042 138.638 56.6197 139.887 57.2507C141.157 57.8817 142.099 58.7268 142.712 59.7859C143.348 60.8451 143.665 62.0282 143.665 63.3352C143.665 64.8676 143.211 66.2648 142.304 67.5268C141.418 68.7662 140.045 69.6113 138.184 70.062L144.04 79.7972H139.41ZM131.001 67.3239H135.291C136.743 67.3239 137.833 66.9634 138.559 66.2423C139.308 65.5211 139.682 64.5521 139.682 63.3352C139.682 62.1183 139.319 61.1718 138.593 60.4958C137.867 59.7972 136.766 59.4479 135.291 59.4479H131.001V67.3239Z" fill="#403D1C"/>
<path d="M150.809 59.4141V66.3099H158.979V69.4535H150.809V76.6535H160V79.7972H146.928V56.2704H160V59.4141H150.809Z" fill="#403D1C"/>
<path d="M48.7278 36.5772L52.7641 35.9486V6.61248L48 5.35522V1.58344L57.462 0.326172L58.6531 1.2342L59.0501 4.02811L58.9839 6.26324C60.5278 4.77315 62.6231 3.42276 65.2699 2.21207C67.9607 0.954804 70.3648 0.326172 72.4822 0.326172C74.8642 0.326172 76.7831 0.745261 78.2388 1.58344C79.6945 2.42161 80.7973 3.72544 81.5472 5.49492C82.9588 4.23765 84.9218 3.07352 87.4362 2.00252C89.9947 0.884955 92.3767 0.326172 94.5823 0.326172C97.3173 0.326172 99.4567 0.884955 101.001 2.00252C102.545 3.07352 103.625 4.77316 104.243 7.10142C104.905 9.38312 105.235 12.4564 105.235 16.3213V35.9486L109.999 36.5772V39.9998H94.2515V36.5772L98.3539 35.9486V16.5309C98.3539 13.8301 98.1554 11.6881 97.7584 10.1049C97.4055 8.4751 96.6997 7.2644 95.641 6.47279C94.6264 5.68118 93.1487 5.28537 91.2077 5.28537C89.752 5.28537 88.2081 5.63461 86.576 6.33309C84.9438 6.98501 83.5543 7.77662 82.4074 8.70792C82.8044 10.524 83.0029 13.1083 83.0029 16.461V35.9486L87.7008 36.5772V39.9998H71.6882V36.5772L76.0553 35.9486V16.3912C76.0553 13.5973 75.8788 11.432 75.5259 9.89534C75.2171 8.35868 74.5996 7.21783 73.6732 6.47279C72.7468 5.68118 71.3353 5.28537 69.4384 5.28537C67.8504 5.28537 66.1521 5.70446 64.3435 6.54264C62.579 7.38081 61.0351 8.35868 59.7117 9.47625V35.9486L64.145 36.5772V39.9998H48.7278V36.5772Z" fill="#403D1C"/>
<path d="M50.9238 36.5672L54.9471 35.9371V6.53196L50.1982 5.27174L50.418 1.26031L59.4101 0L60.8173 1.14102L61.213 3.94151L61.1471 6.1819C62.6861 4.68831 64.7747 3.33474 67.413 2.12119C70.0952 0.860971 72.4917 0.23086 74.6023 0.23086C76.9767 0.23086 78.8895 0.650935 80.3405 1.49108C81.7916 2.33123 82.8909 3.63812 83.6384 5.41177C85.0455 4.15155 87.0022 2.98467 89.5085 1.91115C92.0589 0.790958 94.4333 0.23086 96.6319 0.23086C99.3581 0.23086 101.491 0.790958 103.03 1.91115C104.569 2.98467 105.646 4.68831 106.262 7.02205C106.921 9.30912 107.251 12.3897 107.251 16.2637V35.9371L112 36.5672V39.9978H96.3021V36.5672L100.391 35.9371V16.4737C100.391 13.7666 100.194 11.6195 99.7978 10.0326C99.446 8.39896 98.7425 7.18541 97.6872 6.39194C96.6759 5.59847 95.2028 5.20173 93.2681 5.20173C91.817 5.20173 90.278 5.55179 88.6511 6.25191C87.0242 6.90536 85.6391 7.69883 84.4958 8.63233C84.8916 10.4527 85.0894 13.0431 85.0894 16.4037V35.9371L89.7724 36.5672V39.9978H73.8108V36.5672L78.164 35.9371V16.3337C78.164 13.5332 77.9881 11.3628 77.6363 9.82254C77.3285 8.28227 76.7129 7.13874 75.7895 6.39194C74.8661 5.59847 73.459 5.20173 71.5683 5.20173C69.9853 5.20173 68.2924 5.6218 66.4896 6.46195C64.7307 7.3021 63.1917 8.28227 61.8726 9.40247V35.9371L66.2917 36.5672V39.9978H50.9238V36.5672Z" fill="url(#paint0_linear_1302_87)"/>
<defs>
<linearGradient id="paint0_linear_1302_87" x1="118.392" y1="0" x2="50.0812" y2="0" gradientUnits="userSpaceOnUse">
<stop stop-color="#FF4236"/>
<stop offset="0.328125" stop-color="#AE2916"/>
<stop offset="0.65625" stop-color="#5E9432"/>
<stop offset="1" stop-color="#406A1D"/>
</linearGradient>
</defs>
</svg>
