<svg width="298" height="160" viewBox="0 0 298 160" fill="none" xmlns="http://www.w3.org/2000/svg">
<path d="M143.475 84C134.88 84 128.635 82.635 124.741 79.9049C120.914 77.2414 119 73.5458 119 68.8181C119 65.8882 119.906 63.1914 121.719 60.7277C123.6 58.264 125.815 56.3995 128.367 55.1344C125.278 53.4031 123.734 50.6064 123.734 46.7444C123.734 44.3472 124.439 42.0832 125.849 39.9524C127.259 37.8216 129.106 36.1903 131.388 35.0583C128.031 33.5933 125.446 31.4958 123.633 28.7658C121.887 26.0357 121.014 22.8062 121.014 19.0773C121.014 15.2152 122.089 11.8526 124.237 8.9893C126.453 6.12604 129.341 3.92865 132.899 2.39714C136.525 0.865634 140.353 0.0998802 144.381 0.0998802C151.163 0.0998802 156.468 1.49822 160.295 4.29489C161.302 3.29608 162.847 2.33056 164.928 1.39834C167.01 0.466112 169.225 0 171.576 0H175V8.78954H163.921C165.532 11.2533 166.338 14.1165 166.338 17.3793C166.338 21.308 165.331 24.8038 163.317 27.8668C161.369 30.8633 158.616 33.1938 155.058 34.8585C151.566 36.5232 147.604 37.3555 143.173 37.3555C140.285 37.3555 137.7 37.0559 135.417 36.4566C134.477 37.3888 133.705 38.4209 133.101 39.5529C132.496 40.6849 132.194 41.7836 132.194 42.849C132.194 45.2461 133 46.9108 134.612 47.843C136.223 48.7087 139.11 49.1415 143.273 49.1415H154.655C161.168 49.1415 166.002 50.3734 169.158 52.8371C172.314 55.3008 173.892 58.7967 173.892 63.3246C173.892 67.1201 172.516 70.5826 169.763 73.7123C167.01 76.9085 163.283 79.4055 158.583 81.2033C153.95 83.0678 148.914 84 143.475 84ZM144.18 31.8621C151.835 31.8621 155.662 27.3674 155.662 18.3781C155.662 13.9168 154.655 10.654 152.64 8.58978C150.693 6.45898 147.739 5.39358 143.777 5.39358C140.084 5.39358 137.163 6.42568 135.014 8.48989C132.866 10.4875 131.791 13.717 131.791 18.1784C131.791 22.3734 132.799 25.7027 134.813 28.1665C136.894 30.6302 140.017 31.8621 144.18 31.8621ZM144.381 78.2069C147.671 78.2069 150.76 77.7075 153.647 76.7087C156.602 75.7765 158.986 74.3448 160.799 72.4138C162.612 70.5493 163.518 68.352 163.518 65.8216C163.518 62.8252 162.712 60.6278 161.101 59.2295C159.489 57.8977 156.367 57.2319 151.734 57.2319H139.849C137.163 57.2319 135.048 57.0654 133.504 56.7325C130.751 59.7289 129.374 63.0916 129.374 66.8204C129.374 70.5493 130.516 73.3793 132.799 75.3104C135.082 77.2414 138.942 78.2069 144.381 78.2069Z" fill="#406A1D"/>
<path d="M147.475 84C138.88 84 132.635 82.635 128.741 79.9049C124.914 77.2414 123 73.5458 123 68.8181C123 65.8882 123.906 63.1914 125.719 60.7277C127.6 58.264 129.815 56.3995 132.367 55.1344C129.278 53.4031 127.734 50.6064 127.734 46.7444C127.734 44.3472 128.439 42.0832 129.849 39.9524C131.259 37.8216 133.106 36.1903 135.388 35.0583C132.031 33.5933 129.446 31.4958 127.633 28.7658C125.887 26.0357 125.014 22.8062 125.014 19.0773C125.014 15.2152 126.089 11.8526 128.237 8.9893C130.453 6.12604 133.341 3.92865 136.899 2.39714C140.525 0.865634 144.353 0.0998802 148.381 0.0998802C155.163 0.0998802 160.468 1.49822 164.295 4.29489C165.302 3.29608 166.847 2.33056 168.928 1.39834C171.01 0.466112 173.225 0 175.576 0H179V8.78954H167.921C169.532 11.2533 170.338 14.1165 170.338 17.3793C170.338 21.308 169.331 24.8038 167.317 27.8668C165.369 30.8633 162.616 33.1938 159.058 34.8585C155.566 36.5232 151.604 37.3555 147.173 37.3555C144.285 37.3555 141.7 37.0559 139.417 36.4566C138.477 37.3888 137.705 38.4209 137.101 39.5529C136.496 40.6849 136.194 41.7836 136.194 42.849C136.194 45.2461 137 46.9108 138.612 47.843C140.223 48.7087 143.11 49.1415 147.273 49.1415H158.655C165.168 49.1415 170.002 50.3734 173.158 52.8371C176.314 55.3008 177.892 58.7967 177.892 63.3246C177.892 67.1201 176.516 70.5826 173.763 73.7123C171.01 76.9085 167.283 79.4055 162.583 81.2033C157.95 83.0678 152.914 84 147.475 84ZM148.18 31.8621C155.835 31.8621 159.662 27.3674 159.662 18.3781C159.662 13.9168 158.655 10.654 156.64 8.58978C154.693 6.45898 151.739 5.39358 147.777 5.39358C144.084 5.39358 141.163 6.42568 139.014 8.48989C136.866 10.4875 135.791 13.717 135.791 18.1784C135.791 22.3734 136.799 25.7027 138.813 28.1665C140.894 30.6302 144.017 31.8621 148.18 31.8621ZM148.381 78.2069C151.671 78.2069 154.76 77.7075 157.647 76.7087C160.602 75.7765 162.986 74.3448 164.799 72.4138C166.612 70.5493 167.518 68.352 167.518 65.8216C167.518 62.8252 166.712 60.6278 165.101 59.2295C163.489 57.8977 160.367 57.2319 155.734 57.2319H143.849C141.163 57.2319 139.048 57.0654 137.504 56.7325C134.751 59.7289 133.374 63.0916 133.374 66.8204C133.374 70.5493 134.516 73.3793 136.799 75.3104C139.082 77.2414 142.942 78.2069 148.381 78.2069Z" fill="url(#paint0_linear_1152_520)"/>
<path d="M46.4118 116.558V159.628H39.1837V130.13L25.742 159.628H20.7331L7.22806 130.13V159.628H0V116.558H7.7987L23.2693 150.332L38.6765 116.558H46.4118Z" fill="#403D1C"/>
<path d="M79.3081 150.828H60.8575L57.6873 159.628H50.1422L65.9298 116.496H74.2991L90.0868 159.628H82.4783L79.3081 150.828ZM77.2791 145.065L70.1145 125.048L62.8864 145.065H77.2791Z" fill="#403D1C"/>
<path d="M129.985 159.628H122.757L101.009 127.465V159.628H93.781V116.496H101.009L122.757 148.597V116.496H129.985V159.628Z" fill="#403D1C"/>
<path d="M168.199 128.952C167.057 126.804 165.472 125.192 163.443 124.118C161.414 123.003 159.068 122.445 156.405 122.445C153.489 122.445 150.889 123.085 148.607 124.366C146.324 125.647 144.528 127.465 143.217 129.82C141.949 132.175 141.315 134.901 141.315 138C141.315 141.099 141.949 143.846 143.217 146.242C144.528 148.597 146.324 150.415 148.607 151.696C150.889 152.977 153.489 153.617 156.405 153.617C160.336 153.617 163.528 152.543 165.979 150.394C168.431 148.246 169.932 145.333 170.481 141.656H153.933V136.017H178.216V141.532C177.751 144.879 176.526 147.957 174.539 150.766C172.595 153.576 170.037 155.827 166.867 157.521C163.739 159.174 160.252 160 156.405 160C152.263 160 148.48 159.07 145.056 157.211C141.632 155.311 138.906 152.687 136.877 149.341C134.89 145.994 133.897 142.214 133.897 138C133.897 133.786 134.89 130.006 136.877 126.659C138.906 123.313 141.632 120.71 145.056 118.851C148.522 116.95 152.305 116 156.405 116C161.097 116 165.261 117.136 168.896 119.408C172.573 121.639 175.236 124.821 176.885 128.952H168.199Z" fill="#403D1C"/>
<path d="M189.403 116.558V159.628H182.175V116.558H189.403Z" fill="#403D1C"/>
<path d="M222.289 150.828H203.839L200.668 159.628H193.123L208.911 116.496H217.28L233.068 159.628H225.459L222.289 150.828ZM220.26 145.065L213.096 125.048L205.867 145.065H220.26Z" fill="#403D1C"/>
<path d="M259.651 159.628L249.506 142.4H243.99V159.628H236.762V116.558H251.979C255.361 116.558 258.214 117.136 260.539 118.293C262.906 119.45 264.66 120.999 265.801 122.941C266.985 124.883 267.576 127.052 267.576 129.448C267.576 132.257 266.731 134.819 265.04 137.132C263.392 139.405 260.835 140.954 257.368 141.78L268.274 159.628H259.651ZM243.99 136.761H251.979C254.684 136.761 256.713 136.1 258.066 134.777C259.461 133.455 260.158 131.679 260.158 129.448C260.158 127.217 259.482 125.482 258.129 124.242C256.777 122.962 254.727 122.321 251.979 122.321H243.99V136.761Z" fill="#403D1C"/>
<path d="M280.881 122.259V134.901H296.098V140.665H280.881V153.865H298V159.628H273.653V116.496H298V122.259H280.881Z" fill="#403D1C"/>
<defs>
<linearGradient id="paint0_linear_1152_520" x1="184.792" y1="0" x2="122.894" y2="0" gradientUnits="userSpaceOnUse">
<stop stop-color="#FF4236"/>
<stop offset="1" stop-color="#406A1D"/>
</linearGradient>
</defs>
</svg>
