<svg width="54" height="54" viewBox="0 0 54 54" fill="none" xmlns="http://www.w3.org/2000/svg">
<circle cx="27" cy="27" r="27" fill="#43311F"/>
<path d="M22.555 37C31.6063 37 36.5648 29.3158 36.5648 22.6391C36.5648 22.4135 36.5648 22.203 36.5501 21.9925C37.5183 21.2857 38.3399 20.3835 39 19.3759C38.1198 19.782 37.1663 20.0526 36.1687 20.1729C37.1809 19.5414 37.9584 18.5639 38.3398 17.3759C37.3863 17.9474 36.3301 18.3684 35.2152 18.594C34.3203 17.6165 33.044 17 31.621 17C28.9071 17 26.6919 19.2556 26.6919 22.0526C26.6919 22.4436 26.7359 22.8346 26.824 23.2105C22.731 23 19.1076 20.985 16.6724 17.9323C16.2469 18.6842 16.0122 19.5414 16.0122 20.4737C16.0122 22.218 16.8778 23.7669 18.198 24.6692C17.3912 24.6391 16.6284 24.4135 15.9682 24.0376C15.9682 24.0526 15.9682 24.0827 15.9682 24.0977C15.9682 26.5489 17.6699 28.5789 19.9144 29.0451C19.5037 29.1654 19.0636 29.2256 18.6088 29.2256C18.2861 29.2256 17.978 29.1955 17.6846 29.1353C18.3154 31.1353 20.1345 32.594 22.291 32.6391C20.6039 33.9925 18.4768 34.8045 16.1736 34.8045C15.7775 34.8045 15.3814 34.7744 15 34.7293C17.1858 36.1729 19.7677 37 22.555 37Z" fill="white"/>
</svg>
