<svg width="25" height="21" viewBox="0 0 25 21" fill="none" xmlns="http://www.w3.org/2000/svg">
<path d="M7.92587 14.1001H7.927C7.92794 14.1001 7.92887 14.0999 7.92981 14.0999H20.9965C21.3182 14.0999 21.601 13.8986 21.6894 13.6068L24.5723 4.08681C24.6344 3.88157 24.5908 3.66092 24.4548 3.49057C24.3185 3.32022 24.1055 3.21999 23.8793 3.21999H6.26375L5.74856 1.03249C5.67517 0.721353 5.38276 0.5 5.04493 0.5H0.720704C0.322628 0.5 0 0.804405 0 1.18C0 1.55559 0.322628 1.85999 0.720704 1.85999H4.46687C4.55808 2.24763 6.93228 12.3282 7.06891 12.9082C6.30297 13.2223 5.76564 13.9429 5.76564 14.7799C5.76564 15.9048 6.73558 16.8199 7.92775 16.8199H20.9965C21.3946 16.8199 21.7172 16.5155 21.7172 16.1399C21.7172 15.7643 21.3946 15.4599 20.9965 15.4599H7.92775C7.53042 15.4599 7.20704 15.1548 7.20704 14.7799C7.20704 14.4056 7.5293 14.101 7.92587 14.1001ZM22.9238 4.57998L20.4528 12.7399H8.50581L6.58393 4.57998H22.9238Z" fill="white"/>
<path d="M7.20703 18.8603C7.20703 19.9851 8.17698 20.9003 9.36914 20.9003C10.5613 20.9003 11.5313 19.9851 11.5313 18.8603C11.5313 17.7355 10.5613 16.8203 9.36914 16.8203C8.17698 16.8203 7.20703 17.7355 7.20703 18.8603ZM9.36914 18.1803C9.76647 18.1803 10.0898 18.4854 10.0898 18.8603C10.0898 19.2352 9.76647 19.5403 9.36914 19.5403C8.97182 19.5403 8.64844 19.2352 8.64844 18.8603C8.64844 18.4854 8.97182 18.1803 9.36914 18.1803Z" fill="white"/>
<path d="M17.3931 18.8603C17.3931 19.9851 18.363 20.9003 19.5552 20.9003C20.7473 20.9003 21.7173 19.9851 21.7173 18.8603C21.7173 17.7355 20.7473 16.8203 19.5552 16.8203C18.363 16.8203 17.3931 17.7355 17.3931 18.8603ZM19.5552 18.1803C19.9525 18.1803 20.2759 18.4854 20.2759 18.8603C20.2759 19.2352 19.9525 19.5403 19.5552 19.5403C19.1579 19.5403 18.8345 19.2352 18.8345 18.8603C18.8345 18.4854 19.1579 18.1803 19.5552 18.1803Z" fill="white"/>
</svg>
