<svg width="260" height="36" viewBox="0 0 260 36" fill="none" xmlns="http://www.w3.org/2000/svg">
<path d="M101.808 5.75158V32.8711H97.2864V14.2971L88.8774 32.8711H85.7439L77.2952 14.2971V32.8711H72.7734V5.75158H77.6522L87.3305 27.0179L96.9691 5.75158H101.808Z" fill="#43311F"/>
<path d="M122.388 27.3301H110.845L108.862 32.8711H104.142L114.019 5.71256H119.254L129.131 32.8711H124.371L122.388 27.3301ZM121.119 23.7012L116.636 11.0974L112.115 23.7012H121.119Z" fill="#43311F"/>
<path d="M154.091 32.8711H149.569L135.964 12.6192V32.8711H131.442V5.71256H135.964L149.569 25.9254V5.71256H154.091V32.8711Z" fill="#43311F"/>
<path d="M177.997 13.5557C177.283 12.203 176.291 11.1885 175.022 10.5121C173.753 9.80975 172.285 9.45856 170.619 9.45856C168.795 9.45856 167.168 9.86177 165.74 10.6682C164.312 11.4746 163.189 12.6192 162.369 14.102C161.576 15.5848 161.179 17.3017 161.179 19.2528C161.179 21.2038 161.576 22.9338 162.369 24.4426C163.189 25.9254 164.312 27.07 165.74 27.8764C167.168 28.6828 168.795 29.086 170.619 29.086C173.078 29.086 175.075 28.4097 176.609 27.057C178.142 25.7042 179.081 23.8703 179.425 21.555H169.072V18.0041H184.264V21.477C183.973 23.5841 183.206 25.5221 181.963 27.2911C180.747 29.06 179.147 30.4778 177.164 31.5444C175.207 32.5849 173.026 33.1052 170.619 33.1052C168.028 33.1052 165.661 32.5199 163.519 31.3492C161.377 30.1526 159.672 28.5007 158.402 26.3936C157.16 24.2865 156.538 21.9062 156.538 19.2528C156.538 16.5994 157.16 14.2191 158.402 12.112C159.672 10.0049 161.377 8.36597 163.519 7.19535C165.688 5.99871 168.054 5.40039 170.619 5.40039C173.554 5.40039 176.159 6.11577 178.433 7.54654C180.734 8.95129 182.4 10.9544 183.431 13.5557H177.997Z" fill="#43311F"/>
<path d="M191.262 5.75158V32.8711H186.741V5.75158H191.262Z" fill="#43311F"/>
<path d="M211.835 27.3301H200.293L198.31 32.8711H193.59L203.466 5.71256H208.702L218.579 32.8711H213.819L211.835 27.3301ZM210.566 23.7012L206.084 11.0974L201.562 23.7012H210.566Z" fill="#43311F"/>
<path d="M235.209 32.8711L228.862 22.0233H225.411V32.8711H220.89V5.75158H230.409C232.525 5.75158 234.31 6.11577 235.764 6.84416C237.245 7.57255 238.342 8.54807 239.056 9.77073C239.797 10.9934 240.167 12.3591 240.167 13.8679C240.167 15.6369 239.638 17.2497 238.58 18.7065C237.549 20.1373 235.949 21.1128 233.781 21.6331L240.603 32.8711H235.209ZM225.411 18.4724H230.409C232.102 18.4724 233.371 18.0562 234.217 17.2237C235.09 16.3913 235.526 15.2727 235.526 13.8679C235.526 12.4632 235.103 11.3706 234.257 10.5902C233.411 9.78373 232.128 9.38052 230.409 9.38052H225.411V18.4724Z" fill="#43311F"/>
<path d="M248.49 9.3415V17.3017H258.01V20.9307H248.49V29.2421H259.2V32.8711H243.968V5.71256H259.2V9.3415H248.49Z" fill="#43311F"/>
<path d="M0.695332 32.9205L4.55126 32.3547V5.95253L0 4.82101V1.42645L9.03931 0.294922L10.1771 1.11213L10.5564 3.62662L10.4932 5.63822C11.9681 4.29715 13.9698 3.08182 16.4983 1.99221C19.0689 0.860683 21.3656 0.294922 23.3884 0.294922C25.6641 0.294922 27.4972 0.672097 28.8879 1.42645C30.2785 2.18079 31.3321 3.35422 32.0485 4.94673C33.397 3.81521 35.2723 2.7675 37.6743 1.80362C40.1185 0.79782 42.3942 0.294922 44.5012 0.294922C47.114 0.294922 49.1578 0.79782 50.6328 1.80362C52.1077 2.7675 53.1402 4.29716 53.7302 6.39257C54.3623 8.44607 54.6783 11.212 54.6783 14.6904V32.3547L59.2296 32.9205V36.0007H44.1852V32.9205L48.1043 32.3547V14.879C48.1043 12.4483 47.9147 10.5205 47.5354 9.09564C47.1983 7.62886 46.524 6.53925 45.5126 5.82681C44.5434 5.11437 43.1316 4.75815 41.2774 4.75815C39.8867 4.75815 38.4118 5.07246 36.8526 5.70108C35.2933 6.2878 33.9659 7.00023 32.8702 7.8384C33.2495 9.47282 33.4391 11.7987 33.4391 14.8161V32.3547L37.9272 32.9205V36.0007H22.6299V32.9205L26.8019 32.3547V14.7533C26.8019 12.2388 26.6333 10.29 26.2962 8.90706C26.0012 7.52409 25.4112 6.49734 24.5262 5.82681C23.6413 5.11437 22.2927 4.75815 20.4807 4.75815C18.9636 4.75815 17.3411 5.13532 15.6134 5.88967C13.9277 6.64401 12.4528 7.52409 11.1885 8.52988V32.3547L15.4237 32.9205V36.0007H0.695332V32.9205Z" fill="#403D1C"/>
<path d="M2.7937 32.9101L6.63732 32.343V5.87869L2.10059 4.74451L2.31052 1.13427L10.9009 0L12.2452 1.02691L12.6233 3.54731L12.5603 5.56364C14.0305 4.21942 16.0258 3.00122 18.5463 1.90905C21.1087 0.774864 23.398 0.207771 25.4144 0.207771C27.6827 0.207771 29.51 0.585834 30.8962 1.34196C32.2825 2.09808 33.3326 3.27427 34.0468 4.87053C35.391 3.73634 37.2603 2.68617 39.6547 1.72002C42.0911 0.711853 44.3594 0.207771 46.4598 0.207771C49.0642 0.207771 51.1015 0.711853 52.5718 1.72002C54.042 2.68617 55.0712 4.21942 55.6593 6.31976C56.2894 8.3781 56.6044 11.1505 56.6044 14.6371V32.343L61.1412 32.9101V35.9976H46.1447V32.9101L50.0514 32.343V14.8261C50.0514 12.3897 49.8623 10.4574 49.4843 9.0292C49.1482 7.55896 48.4761 6.46679 47.4679 5.75267C46.5018 5.03856 45.0946 4.6815 43.2463 4.6815C41.86 4.6815 40.3898 4.99655 38.8355 5.62665C37.2813 6.21475 35.9581 6.92886 34.8659 7.769C35.244 9.40726 35.433 11.7386 35.433 14.7631V32.343L39.9067 32.9101V35.9976H24.6582V32.9101L28.8169 32.343V14.7001C28.8169 12.1797 28.6489 10.2264 28.3128 8.84017C28.0188 7.45395 27.4307 6.42478 26.5485 5.75267C25.6664 5.03856 24.3222 4.6815 22.5159 4.6815C21.0037 4.6815 19.3864 5.05956 17.6641 5.81568C15.9838 6.5718 14.5136 7.45395 13.2534 8.46211V32.343L17.4751 32.9101V35.9976H2.7937V32.9101Z" fill="url(#paint0_linear_1038_87)"/>
<defs>
<linearGradient id="paint0_linear_1038_87" x1="67.2473" y1="0" x2="1.9888" y2="0" gradientUnits="userSpaceOnUse">
<stop stop-color="#FF4236"/>
<stop offset="0.328125" stop-color="#AE2916"/>
<stop offset="0.65625" stop-color="#5E9432"/>
<stop offset="1" stop-color="#406A1D"/>
</linearGradient>
</defs>
</svg>
