<svg width="10" height="19" viewBox="0 0 10 19" fill="none" xmlns="http://www.w3.org/2000/svg">
<path d="M0.244111 10.1109L8.57746 18.747C8.90285 19.0843 9.43052 19.0843 9.75596 18.747C10.0814 18.4097 10.0814 17.8629 9.75591 17.5256L2.01184 9.50016L9.75597 1.47428C10.0814 1.137 10.0814 0.590208 9.75591 0.25293C9.59324 0.0842904 9.37997 -5.42053e-08 9.16669 -7.28507e-08C8.95341 -9.1496e-08 8.74013 0.08429 8.57741 0.252987L0.244111 8.88957C0.0877773 9.05153 -1.05683e-06 9.27118 -1.07685e-06 9.50022C-1.09687e-06 9.72925 0.0877772 9.94896 0.244111 10.1109Z" fill="#263238"/>
</svg>
