<svg width="27" height="25" viewBox="0 0 27 25" fill="none" xmlns="http://www.w3.org/2000/svg">
<path d="M8.69913 16.6625H8.70036C8.70139 16.6625 8.70242 16.6623 8.70345 16.6623H23.045C23.398 16.6623 23.7085 16.4282 23.8055 16.0889L26.9696 5.02C27.0377 4.78137 26.99 4.52483 26.8406 4.32676C26.6911 4.12869 26.4573 4.01215 26.209 4.01215H6.87484L6.30939 1.46873C6.22885 1.10698 5.90791 0.849609 5.53712 0.849609H0.791017C0.354104 0.849609 0 1.20354 0 1.64024C0 2.07695 0.354104 2.43088 0.791017 2.43088H4.90266C5.00277 2.88158 7.60859 14.6023 7.75856 15.2766C6.9179 15.6419 6.32814 16.4797 6.32814 17.4529C6.32814 18.7608 7.39271 19.8249 8.70119 19.8249H23.045C23.4819 19.8249 23.836 19.4709 23.836 19.0342C23.836 18.5975 23.4819 18.2436 23.045 18.2436H8.70119C8.2651 18.2436 7.91017 17.8888 7.91017 17.4529C7.91017 17.0177 8.26386 16.6635 8.69913 16.6625ZM25.1603 5.59342L22.4482 15.081H9.33565L7.22627 5.59342H25.1603Z" fill="#FF7B01"/>
<path d="M7.91016 22.1961C7.91016 23.504 8.97473 24.568 10.2832 24.568C11.5917 24.568 12.6563 23.504 12.6563 22.1961C12.6563 20.8883 11.5917 19.8242 10.2832 19.8242C8.97473 19.8242 7.91016 20.8883 7.91016 22.1961ZM10.2832 21.4055C10.7193 21.4055 11.0742 21.7602 11.0742 22.1961C11.0742 22.632 10.7193 22.9868 10.2832 22.9868C9.84712 22.9868 9.49219 22.632 9.49219 22.1961C9.49219 21.7602 9.84712 21.4055 10.2832 21.4055Z" fill="#FF7B01"/>
<path d="M19.0898 22.1961C19.0898 23.504 20.1544 24.568 21.4629 24.568C22.7714 24.568 23.8359 23.504 23.8359 22.1961C23.8359 20.8883 22.7714 19.8242 21.4629 19.8242C20.1544 19.8242 19.0898 20.8883 19.0898 22.1961ZM21.4629 21.4055C21.899 21.4055 22.2539 21.7602 22.2539 22.1961C22.2539 22.632 21.899 22.9868 21.4629 22.9868C21.0268 22.9868 20.6719 22.632 20.6719 22.1961C20.6719 21.7602 21.0268 21.4055 21.4629 21.4055Z" fill="#FF7B01"/>
</svg>
