<svg width="117" height="43" viewBox="0 0 117 43" fill="none" xmlns="http://www.w3.org/2000/svg">
<rect x="0.5" y="1.38086" width="116" height="40.9797" rx="20.4899" fill="white" stroke="#FF7B01"/>
<path d="M64.7109 29.877H53.2383V27.9199L58.9219 21.7207C59.7422 20.8066 60.3242 20.0449 60.668 19.4355C61.0195 18.8184 61.1953 18.2012 61.1953 17.584C61.1953 16.7715 60.9648 16.1152 60.5039 15.6152C60.0508 15.1152 59.4375 14.8652 58.6641 14.8652C57.7422 14.8652 57.0273 15.1465 56.5195 15.709C56.0117 16.2715 55.7578 17.041 55.7578 18.0176H52.9102C52.9102 16.9785 53.1445 16.0449 53.6133 15.2168C54.0898 14.3809 54.7656 13.7324 55.6406 13.2715C56.5234 12.8105 57.5391 12.5801 58.6875 12.5801C60.3438 12.5801 61.6484 12.998 62.6016 13.834C63.5625 14.6621 64.043 15.8105 64.043 17.2793C64.043 18.1309 63.8008 19.0254 63.3164 19.9629C62.8398 20.8926 62.0547 21.9512 60.9609 23.1387L56.7891 27.6035H64.7109V29.877Z" fill="#1B1713"/>
<path d="M20 21.8711H32" stroke="#FF7B01" stroke-width="3" stroke-linecap="round" stroke-linejoin="round"/>
<path d="M85 21.8711H97" stroke="#FF7B01" stroke-width="3" stroke-linecap="round" stroke-linejoin="round"/>
<path d="M91 27.8672L91 15.873" stroke="#FF7B01" stroke-width="3" stroke-linecap="round" stroke-linejoin="round"/>
</svg>
