<svg width="33" height="33" viewBox="0 0 33 33" fill="none" xmlns="http://www.w3.org/2000/svg">
<g clip-path="url(#clip0_1007_3859)">
<path d="M21.0521 11.9551C20.6253 11.9551 20.2793 12.301 20.2793 12.7279V27.3345C20.2793 27.761 20.6253 28.1073 21.0521 28.1073C21.479 28.1073 21.825 27.761 21.825 27.3345V12.7279C21.825 12.301 21.479 11.9551 21.0521 11.9551Z" fill="#1B1713"/>
<path d="M11.932 11.9551C11.5051 11.9551 11.1592 12.301 11.1592 12.7279V27.3345C11.1592 27.761 11.5051 28.1073 11.932 28.1073C12.3589 28.1073 12.7048 27.761 12.7048 27.3345V12.7279C12.7048 12.301 12.3589 11.9551 11.932 11.9551Z" fill="#1B1713"/>
<path d="M5.28579 9.82442V28.8654C5.28579 29.9908 5.69847 31.0477 6.41937 31.806C7.13696 32.5665 8.1356 32.9982 9.18074 33H23.803C24.8484 32.9982 25.847 32.5665 26.5643 31.806C27.2852 31.0477 27.6979 29.9908 27.6979 28.8654V9.82442C29.131 9.44404 30.0596 8.05958 29.8679 6.58909C29.6759 5.1189 28.4233 4.01913 26.9405 4.01882H22.9836V3.05278C22.9882 2.24041 22.667 1.46033 22.0919 0.886442C21.5168 0.312857 20.7355 -0.00653998 19.9231 0.000101544H13.0606C12.2482 -0.00653998 11.4669 0.312857 10.8918 0.886442C10.3167 1.46033 9.99553 2.24041 10.0001 3.05278V4.01882H6.04322C4.56035 4.01913 3.30782 5.1189 3.11582 6.58909C2.92412 8.05958 3.85273 9.44404 5.28579 9.82442ZM23.803 31.4543H9.18074C7.85938 31.4543 6.83145 30.3192 6.83145 28.8654V9.89234H26.1522V28.8654C26.1522 30.3192 25.1243 31.4543 23.803 31.4543ZM11.5457 3.05278C11.5406 2.65037 11.6988 2.26305 11.9844 1.97897C12.2696 1.6949 12.6579 1.53882 13.0606 1.54576H19.9231C20.3258 1.53882 20.714 1.6949 20.9993 1.97897C21.2849 2.26275 21.4431 2.65037 21.438 3.05278V4.01882H11.5457V3.05278ZM6.04322 5.56449H26.9405C27.7088 5.56449 28.3316 6.18728 28.3316 6.95558C28.3316 7.72389 27.7088 8.34668 26.9405 8.34668H6.04322C5.27492 8.34668 4.65213 7.72389 4.65213 6.95558C4.65213 6.18728 5.27492 5.56449 6.04322 5.56449Z" fill="#1B1713"/>
<path d="M16.4926 11.9551C16.0657 11.9551 15.7197 12.301 15.7197 12.7279V27.3345C15.7197 27.761 16.0657 28.1073 16.4926 28.1073C16.9194 28.1073 17.2654 27.761 17.2654 27.3345V12.7279C17.2654 12.301 16.9194 11.9551 16.4926 11.9551Z" fill="#1B1713"/>
</g>
<defs>
<clipPath id="clip0_1007_3859">
<rect width="33" height="33" fill="white"/>
</clipPath>
</defs>
</svg>
