<svg width="21" height="39" viewBox="0 0 21 39" fill="none" xmlns="http://www.w3.org/2000/svg">
<path d="M0.512636 20.754L18.0127 38.4808C18.696 39.1731 19.8041 39.1731 20.4875 38.4807C21.1708 37.7884 21.1708 36.666 20.4874 35.9737L4.22486 19.5003L20.4875 3.02616C21.1708 2.33385 21.1708 1.21148 20.4874 0.519173C20.1458 0.173019 19.6979 -1.13831e-07 19.25 -1.52986e-07C18.8022 -1.92142e-07 18.3543 0.173019 18.0126 0.519291L0.512636 18.247C0.184336 18.5795 1.7458e-06 19.0303 1.7047e-06 19.5004C1.66361e-06 19.9706 0.184335 20.4216 0.512636 20.754Z" fill="#E97F02"/>
</svg>
