<svg width="50" height="51" viewBox="0 0 50 51" fill="none" xmlns="http://www.w3.org/2000/svg">
<ellipse cx="25" cy="25.902" rx="25" ry="24.9879" fill="#6A6A6A"/>
<path d="M13.5366 33.5231C14.2432 33.4298 14.7766 33.1931 15.1366 32.8131C15.5032 32.4265 15.6866 31.9231 15.6866 31.3031C15.6866 31.0498 15.6399 30.8298 15.5466 30.6431C15.4599 30.4498 15.3332 30.2798 15.1666 30.1331C15.0066 29.9865 14.8166 29.8598 14.5966 29.7531C14.3766 29.6465 14.1366 29.5465 13.8766 29.4531L13.5366 33.5231ZM12.8966 22.9531C12.5232 22.9998 12.2066 23.0798 11.9466 23.1931C11.6866 23.2998 11.4732 23.4331 11.3066 23.5931C11.1399 23.7531 11.0166 23.9331 10.9366 24.1331C10.8632 24.3331 10.8266 24.5431 10.8266 24.7631C10.8266 25.0165 10.8699 25.2398 10.9566 25.4331C11.0499 25.6198 11.1732 25.7898 11.3266 25.9431C11.4866 26.0898 11.6732 26.2231 11.8866 26.3431C12.0999 26.4565 12.3332 26.5631 12.5866 26.6631L12.8966 22.9531ZM14.0666 27.1431C14.5466 27.2898 15.0232 27.4531 15.4966 27.6331C15.9699 27.8065 16.3932 28.0331 16.7666 28.3131C17.1466 28.5931 17.4532 28.9431 17.6866 29.3631C17.9199 29.7765 18.0366 30.2965 18.0366 30.9231C18.0366 31.5431 17.9332 32.1265 17.7266 32.6731C17.5199 33.2131 17.2166 33.6931 16.8166 34.1131C16.4166 34.5265 15.9266 34.8665 15.3466 35.1331C14.7666 35.3931 14.1032 35.5465 13.3566 35.5931L13.2366 37.0631C13.2299 37.2165 13.1632 37.3565 13.0366 37.4831C12.9166 37.6165 12.7632 37.6831 12.5766 37.6831H11.6666L11.8466 35.5431C11.0666 35.4365 10.3332 35.2231 9.64656 34.9031C8.9599 34.5831 8.37656 34.1865 7.89656 33.7131L8.65656 32.5831C8.72323 32.4831 8.8099 32.4031 8.91656 32.3431C9.0299 32.2765 9.1499 32.2431 9.27656 32.2431C9.42323 32.2431 9.5799 32.2965 9.74656 32.4031C9.91323 32.5031 10.1032 32.6231 10.3166 32.7631C10.5299 32.8965 10.7732 33.0331 11.0466 33.1731C11.3199 33.3131 11.6432 33.4165 12.0166 33.4831L12.3866 29.0131C11.9132 28.8798 11.4432 28.7231 10.9766 28.5431C10.5166 28.3631 10.0999 28.1265 9.72656 27.8331C9.3599 27.5331 9.06323 27.1565 8.83656 26.7031C8.6099 26.2498 8.49656 25.6831 8.49656 25.0031C8.49656 24.4965 8.59656 24.0031 8.79656 23.5231C8.99656 23.0365 9.2899 22.6031 9.67656 22.2231C10.0699 21.8431 10.5499 21.5298 11.1166 21.2831C11.6832 21.0365 12.3332 20.8965 13.0666 20.8631L13.1766 19.6031C13.1899 19.4431 13.2566 19.2998 13.3766 19.1731C13.4966 19.0465 13.6532 18.9831 13.8466 18.9831H14.7566L14.5966 20.9431C15.3032 21.0565 15.9132 21.2598 16.4266 21.5531C16.9399 21.8398 17.3832 22.1631 17.7566 22.5231L17.1566 23.4331C17.0699 23.5665 16.9799 23.6665 16.8866 23.7331C16.7932 23.7998 16.6799 23.8331 16.5466 23.8331C16.4466 23.8331 16.3266 23.8031 16.1866 23.7431C16.0466 23.6765 15.8899 23.5998 15.7166 23.5131C15.5432 23.4198 15.3466 23.3265 15.1266 23.2331C14.9132 23.1398 14.6766 23.0631 14.4166 23.0031L14.0666 27.1431ZM28.6381 33.1531C28.9048 33.1531 29.1148 33.2298 29.2681 33.3831C29.4281 33.5298 29.5081 33.7265 29.5081 33.9731V35.4531H19.5881V34.6331C19.5881 34.4665 19.6215 34.2931 19.6881 34.1131C19.7615 33.9265 19.8748 33.7598 20.0281 33.6131L24.4181 29.2131C24.7848 28.8398 25.1115 28.4831 25.3981 28.1431C25.6915 27.8031 25.9348 27.4665 26.1281 27.1331C26.3215 26.7998 26.4681 26.4631 26.5681 26.1231C26.6748 25.7765 26.7281 25.4131 26.7281 25.0331C26.7281 24.6865 26.6781 24.3831 26.5781 24.1231C26.4781 23.8565 26.3348 23.6331 26.1481 23.4531C25.9681 23.2731 25.7481 23.1398 25.4881 23.0531C25.2348 22.9598 24.9481 22.9131 24.6281 22.9131C24.3348 22.9131 24.0615 22.9565 23.8081 23.0431C23.5615 23.1231 23.3415 23.2398 23.1481 23.3931C22.9548 23.5398 22.7915 23.7131 22.6581 23.9131C22.5248 24.1131 22.4248 24.3331 22.3581 24.5731C22.2448 24.8798 22.0981 25.0831 21.9181 25.1831C21.7381 25.2831 21.4781 25.3065 21.1381 25.2531L19.8381 25.0231C19.9381 24.3298 20.1315 23.7231 20.4181 23.2031C20.7048 22.6765 21.0615 22.2398 21.4881 21.8931C21.9215 21.5398 22.4148 21.2765 22.9681 21.1031C23.5281 20.9231 24.1281 20.8331 24.7681 20.8331C25.4348 20.8331 26.0448 20.9331 26.5981 21.1331C27.1515 21.3265 27.6248 21.6031 28.0181 21.9631C28.4115 22.3231 28.7181 22.7565 28.9381 23.2631C29.1581 23.7698 29.2681 24.3331 29.2681 24.9531C29.2681 25.4865 29.1881 25.9798 29.0281 26.4331C28.8748 26.8865 28.6648 27.3198 28.3981 27.7331C28.1381 28.1465 27.8315 28.5465 27.4781 28.9331C27.1248 29.3198 26.7548 29.7131 26.3681 30.1131L23.1081 33.4431C23.4215 33.3498 23.7315 33.2798 24.0381 33.2331C24.3515 33.1798 24.6481 33.1531 24.9281 33.1531H28.6381ZM34.4897 26.2431C34.8097 26.1765 35.1164 26.1298 35.4097 26.1031C35.703 26.0698 35.9864 26.0531 36.2597 26.0531C37.0197 26.0531 37.6897 26.1665 38.2697 26.3931C38.8497 26.6198 39.3364 26.9331 39.7297 27.3331C40.123 27.7331 40.4197 28.2031 40.6197 28.7431C40.8197 29.2765 40.9197 29.8531 40.9197 30.4731C40.9197 31.2398 40.783 31.9398 40.5097 32.5731C40.243 33.2065 39.8697 33.7498 39.3897 34.2031C38.9097 34.6498 38.3397 34.9965 37.6797 35.2431C37.0264 35.4898 36.313 35.6131 35.5397 35.6131C35.0864 35.6131 34.6564 35.5665 34.2497 35.4731C33.843 35.3798 33.4597 35.2565 33.0997 35.1031C32.7464 34.9431 32.4164 34.7631 32.1097 34.5631C31.8097 34.3565 31.5397 34.1398 31.2997 33.9131L32.0597 32.8631C32.2197 32.6365 32.4297 32.5231 32.6897 32.5231C32.8564 32.5231 33.0264 32.5765 33.1997 32.6831C33.373 32.7898 33.5697 32.9065 33.7897 33.0331C34.0164 33.1598 34.2797 33.2765 34.5797 33.3831C34.8864 33.4898 35.253 33.5431 35.6797 33.5431C36.133 33.5431 36.533 33.4698 36.8797 33.3231C37.2264 33.1765 37.513 32.9731 37.7397 32.7131C37.973 32.4465 38.1464 32.1331 38.2597 31.7731C38.3797 31.4065 38.4397 31.0098 38.4397 30.5831C38.4397 29.7965 38.2097 29.1831 37.7497 28.7431C37.2964 28.2965 36.623 28.0731 35.7297 28.0731C35.043 28.0731 34.3397 28.1998 33.6197 28.4531L32.0797 28.0131L33.2797 20.9931H40.4197V22.0431C40.4197 22.3965 40.3097 22.6831 40.0897 22.9031C39.8697 23.1231 39.4964 23.2331 38.9697 23.2331H34.9997L34.4897 26.2431Z" fill="white"/>
</svg>
