<svg width="29" height="29" viewBox="0 0 29 29" fill="none" xmlns="http://www.w3.org/2000/svg">
<path d="M21.3192 4.27014L21.3185 4.26978L14.7662 0.908897L14.7662 0.90889L14.7648 0.9082C14.6096 0.8306 14.4187 0.8306 14.2635 0.9082L14.2635 0.908195L14.2623 0.908778L7.68177 4.26966L7.68107 4.27002L1.19434 7.6262C1.1304 7.65 1.07324 7.69057 1.02809 7.73572C0.982512 7.7813 0.941603 7.83911 0.917896 7.90378C0.901847 7.93726 0.893022 7.96374 0.886259 7.98404L0.88594 7.98499C0.879215 8.00517 0.874905 8.01781 0.865836 8.03595L0.85 8.06762V8.10303V8.13128V21.5748C0.85 21.7761 0.96914 21.9628 1.14877 22.0706L1.14859 22.0709L1.15759 22.0755L14.2174 28.7605C14.2841 28.814 14.3543 28.8138 14.3839 28.8137L14.387 28.8137H14.3972L14.4055 28.8171C14.4313 28.8274 14.4728 28.8419 14.5282 28.8419L14.5326 28.842C14.5574 28.842 14.5898 28.842 14.6235 28.8364C14.6562 28.8309 14.6861 28.8211 14.717 28.8072C14.727 28.8044 14.7385 28.8004 14.7507 28.7943C14.7691 28.7851 14.7911 28.7701 14.8098 28.7465C14.8193 28.7389 14.8289 28.7297 14.8377 28.7185L27.8423 22.0755L27.8425 22.0758L27.8512 22.0706C28.0309 21.9628 28.15 21.7761 28.15 21.5748V8.13128C28.15 8.12821 28.15 8.1249 28.1501 8.12137C28.1505 8.0791 28.1512 8.00488 28.0997 7.93723C28.099 7.93542 28.0982 7.93352 28.0974 7.93155C28.0841 7.8994 28.062 7.84576 28.0085 7.7872C27.9506 7.69244 27.8536 7.65201 27.7765 7.62568L21.3192 4.27014ZM21.0522 10.8716L9.17936 4.77025L14.5 2.03014L20.7859 5.27088L20.7862 5.27107L26.3725 8.13166L21.0522 10.8716ZM7.94777 5.39097L19.8206 11.4923L14.5 14.2324L8.21413 10.9917L8.21377 10.9915L2.62752 8.1309L7.94777 5.39097ZM13.9546 15.1988V27.401L1.96904 21.2291V9.05439L7.70973 11.9928L7.7099 11.9928L13.9546 15.1988ZM27.031 9.05439V21.257L15.0454 27.3738V15.1988L21.2901 11.9928L21.2903 11.9928L27.031 9.05439Z" fill="#1B1713" stroke="white" stroke-width="0.3"/>
<path d="M23.5325 12.3956C23.1787 12.2669 22.7692 12.3016 22.3985 12.4866L19.2927 13.983L19.2927 13.983L19.2908 13.984C18.9236 14.1675 18.619 14.4721 18.4354 14.8088C18.2461 15.1558 18.2131 15.5677 18.3414 15.9204C18.4712 16.2775 18.7608 16.5319 19.0762 16.658L19.0762 16.6581L19.0807 16.6597C19.4345 16.7884 19.844 16.7537 20.2147 16.5687L23.3205 15.0723L23.3205 15.0723L23.3224 15.0713C23.6896 14.8878 23.9942 14.5832 24.1778 14.2464L24.1782 14.2466L24.1827 14.2367C24.3248 13.9239 24.3947 13.5669 24.2923 13.2249C24.2943 13.2078 24.2932 13.1937 24.2921 13.1849C24.29 13.1684 24.2858 13.1553 24.2838 13.1493C24.2828 13.1464 24.2818 13.1435 24.2809 13.1411V13.1314L24.2718 13.1066C24.1398 12.7434 23.8449 12.5204 23.537 12.3973L23.537 12.3972L23.5325 12.3956ZM19.5944 15.622L19.5797 15.6147L19.5637 15.6107C19.513 15.598 19.4641 15.5611 19.4231 15.4922V15.4835L19.4187 15.4656C19.3961 15.3755 19.3998 15.2734 19.4355 15.2019C19.4774 15.1183 19.5663 15.0292 19.65 14.987L22.7508 13.493C22.8841 13.4404 22.9687 13.4364 23.0188 13.4615L23.0335 13.4689L23.0495 13.4728C23.102 13.486 23.1562 13.5257 23.2008 13.6372L23.2003 13.6374L23.2059 13.6486C23.2315 13.6997 23.2253 13.7863 23.1777 13.8816L23.3118 13.9487L23.1777 13.8816C23.1358 13.9652 23.0469 14.0543 22.9632 14.0965L19.8624 15.5905C19.7291 15.6432 19.6445 15.6471 19.5944 15.622Z" fill="#1B1713" stroke="white" stroke-width="0.3"/>
</svg>
