<svg width="65" height="65" viewBox="0 0 65 65" fill="none" xmlns="http://www.w3.org/2000/svg">
<path d="M65 20.6934V17.2656C65 13.3392 61.817 10.1562 57.8906 10.1562H7.10938C3.18297 10.1562 0 13.3392 0 17.2656V20.6934C0 21.0439 0.284248 21.3281 0.634766 21.3281H64.3652C64.7158 21.3281 65 21.0439 65 20.6934Z" fill="white"/>
<path d="M0 26.0254V47.7344C0 51.6608 3.18297 54.8438 7.10938 54.8438H57.8906C61.817 54.8438 65 51.6608 65 47.7344V26.0254C65 25.6749 64.7158 25.3906 64.3652 25.3906H0.634766C0.284248 25.3906 0 25.6749 0 26.0254ZM16.25 42.6562C16.25 43.778 15.3405 44.6875 14.2188 44.6875H12.1875C11.0657 44.6875 10.1562 43.778 10.1562 42.6562V40.625C10.1562 39.5032 11.0657 38.5938 12.1875 38.5938H14.2188C15.3405 38.5938 16.25 39.5032 16.25 40.625V42.6562Z" fill="white"/>
</svg>
