<svg width="20" height="23" viewBox="0 0 20 23" fill="none" xmlns="http://www.w3.org/2000/svg">
<path d="M13.1044 0H6.55221V2.19048H13.1044V0ZM8.73628 14.2381H10.9204V7.66667H8.73628V14.2381ZM17.5053 6.99857L19.056 5.44333C18.5864 4.88476 18.0732 4.35905 17.5162 3.89905L15.9656 5.45429C14.2729 4.09619 12.1434 3.28571 9.82832 3.28571C4.4009 3.28571 0 7.69952 0 13.1429C0 18.5862 4.38998 23 9.82832 23C15.2667 23 19.6566 18.5862 19.6566 13.1429C19.6566 10.821 18.8485 8.68524 17.5053 6.99857ZM9.82832 20.8095C5.60214 20.8095 2.18407 17.3814 2.18407 13.1429C2.18407 8.90429 5.60214 5.47619 9.82832 5.47619C14.0545 5.47619 17.4726 8.90429 17.4726 13.1429C17.4726 17.3814 14.0545 20.8095 9.82832 20.8095Z" fill="#1B1713"/>
</svg>
