<svg width="21" height="22" viewBox="0 0 21 22" fill="none" xmlns="http://www.w3.org/2000/svg">
<path d="M5.56836 14.2656V17.7031C5.56836 18.0591 5.85609 18.3477 6.21101 18.3477H14.7796C15.1345 18.3477 15.4223 18.0591 15.4223 17.7031V14.2656C15.4223 13.9097 15.1345 13.6211 14.7796 13.6211H6.21101C5.85605 13.6211 5.56836 13.9097 5.56836 14.2656ZM6.85365 14.9102H14.137V17.0586H6.85365V14.9102Z" fill="#1B1713"/>
<path d="M19.4484 8.72171C19.3926 8.67994 19.3313 8.64828 19.2671 8.62684C19.2745 8.54464 19.2783 8.46192 19.2783 8.37891C19.2783 7.83827 19.1203 7.31629 18.8349 6.87186C19.625 6.3745 20.1352 5.49618 20.1352 4.51172C20.1352 2.97168 18.8859 1.71875 17.3504 1.71875C17.2078 1.71875 17.0662 1.72992 16.9261 1.75209C16.5136 0.715559 15.5096 0 14.3514 0C13.2081 0 12.2076 0.694977 11.7846 1.71875H11.7808C10.3002 1.71875 9.08611 2.88385 9.00119 4.34784C8.36844 4.44946 7.76761 4.7007 7.24917 5.07891L5.99532 2.90082C5.10945 1.36198 3.14039 0.83282 1.60596 1.72124C0.0715778 2.60975 -0.456035 4.58455 0.429875 6.12348L1.85436 8.59805C1.7431 8.61072 1.63514 8.65236 1.54234 8.72184C1.36038 8.85809 1.26364 9.08054 1.28785 9.30695C1.50194 11.311 1.71962 13.3705 1.93015 15.3623C2.10354 17.0026 2.27693 18.6429 2.45031 20.2718C2.55519 21.257 3.37932 22 4.36737 22H16.623C17.6114 22 18.4356 21.2567 18.5402 20.271L19.7032 9.30647C19.7272 9.08007 19.6304 8.85784 19.4484 8.72171ZM11.7808 3.00781C11.8831 3.00781 11.9898 3.02057 12.1072 3.04679C12.2783 3.08494 12.4576 3.05138 12.6036 2.95384C12.7495 2.85626 12.8492 2.70312 12.8798 2.52996C13.0066 1.81096 13.6255 1.28906 14.3514 1.28906C15.1109 1.28906 15.747 1.8648 15.8312 2.62831C15.8538 2.83349 15.973 3.01542 16.1518 3.1176C16.3307 3.21978 16.5476 3.22983 16.735 3.14467C16.9349 3.05387 17.1419 3.00781 17.3504 3.00781C18.1772 3.00781 18.8499 3.68246 18.8499 4.51172C18.8499 5.2406 18.3287 5.86137 17.6106 5.98782C17.3547 6.0329 17.151 6.22806 17.0945 6.48239C17.0379 6.73673 17.1396 7.00017 17.3522 7.15C17.7535 7.43282 17.9931 7.89224 17.9931 8.37895C17.9931 8.60148 17.942 8.82054 17.8453 9.02241C16.3721 9.55715 14.8569 9.92677 13.3123 10.1292C13.403 9.93828 13.4785 9.74037 13.5388 9.53752C15.1877 7.10845 15.4113 4.67027 15.4201 4.56638C15.4502 4.21171 15.1879 3.89971 14.8342 3.86955C14.4807 3.83999 14.1695 4.10248 14.1395 4.45719C14.1381 4.47279 14.0374 5.57013 13.4601 6.97361C12.9602 5.61056 11.7547 4.58683 10.2901 4.34947C10.3711 3.59623 11.0087 3.00781 11.7808 3.00781ZM9.63866 5.58594C11.1742 5.58594 12.4235 6.83886 12.4235 8.37891C12.4235 9.09575 12.1583 9.7628 11.6736 10.2804C11.2824 10.3015 10.8897 10.3125 10.4955 10.3125C10.4173 10.3125 10.3392 10.3119 10.2611 10.3111L7.89717 6.20456C8.38897 5.80757 9.00329 5.58594 9.63866 5.58594ZM1.35036 4.01169C1.48364 3.51282 1.80265 3.09586 2.24861 2.83757C3.16922 2.30454 4.35066 2.622 4.88222 3.54535L5.43339 4.50282L3.60249 4.61304C3.24818 4.63435 2.97822 4.93969 2.99948 5.295C3.01995 5.6372 3.30302 5.90094 3.64037 5.90094C3.65335 5.90094 3.66637 5.90055 3.67948 5.89978L6.15187 5.75098L6.71868 6.73561L4.88778 6.84582C4.53352 6.86714 4.26356 7.17252 4.28481 7.52778C4.30529 7.86998 4.5884 8.13373 4.9257 8.13373C4.93868 8.13373 4.95171 8.13334 4.96482 8.13257L7.43716 7.98372L8.73677 10.2413C7.01743 10.1021 5.33014 9.75829 3.69229 9.21276L1.54298 5.47895C1.28545 5.03168 1.21707 4.5106 1.35036 4.01169ZM17.2621 20.1346C17.2272 20.4631 16.9525 20.7109 16.623 20.7109H4.36737C4.03799 20.7109 3.76328 20.4633 3.72832 20.135C3.55498 18.5064 3.38164 16.8664 3.20829 15.2264C3.03448 13.582 2.85578 11.8914 2.67824 10.2238C5.18726 11.1385 7.81195 11.6016 10.4955 11.6016C13.1794 11.6016 15.8041 11.1385 18.3134 10.2235L17.2621 20.1346Z" fill="#1B1713"/>
</svg>
