<svg width="41" height="41" viewBox="0 0 41 41" fill="none" xmlns="http://www.w3.org/2000/svg">
<path d="M25.7129 27H15.9668V25.0664L20.5664 20.1641C21.1979 19.474 21.6634 18.8717 21.9629 18.3574C22.2689 17.8431 22.4219 17.3548 22.4219 16.8926C22.4219 16.2611 22.2624 15.7663 21.9434 15.4082C21.6243 15.0436 21.1686 14.8613 20.5762 14.8613C19.9382 14.8613 19.4336 15.0827 19.0625 15.5254C18.6979 15.9616 18.5156 16.5378 18.5156 17.2539H15.6836C15.6836 16.388 15.8887 15.597 16.2988 14.8809C16.7155 14.1647 17.3014 13.6048 18.0566 13.2012C18.8118 12.791 19.668 12.5859 20.625 12.5859C22.0898 12.5859 23.2259 12.9375 24.0332 13.6406C24.847 14.3438 25.2539 15.3366 25.2539 16.6191C25.2539 17.3223 25.0716 18.0384 24.707 18.7676C24.3424 19.4967 23.7174 20.3464 22.832 21.3164L19.5996 24.7246H25.7129V27Z" fill="#F3B12A"/>
<circle cx="20.5" cy="20.5" r="19.5" stroke="#F3B12A" stroke-width="2"/>
</svg>
