<svg width="41" height="41" viewBox="0 0 41 41" fill="none" xmlns="http://www.w3.org/2000/svg">
<path d="M18.8379 18.6406H20.3418C21.0579 18.6406 21.5885 18.4616 21.9336 18.1035C22.2786 17.7454 22.4512 17.2702 22.4512 16.6777C22.4512 16.1048 22.2786 15.6589 21.9336 15.3398C21.5951 15.0208 21.1263 14.8613 20.5273 14.8613C19.987 14.8613 19.5345 15.0111 19.1699 15.3105C18.8053 15.6035 18.623 15.9876 18.623 16.4629H15.8008C15.8008 15.7207 15.9993 15.0566 16.3965 14.4707C16.8001 13.8783 17.36 13.416 18.0762 13.084C18.7988 12.752 19.5931 12.5859 20.459 12.5859C21.9629 12.5859 23.1413 12.9473 23.9941 13.6699C24.847 14.3861 25.2734 15.3757 25.2734 16.6387C25.2734 17.2897 25.0749 17.8887 24.6777 18.4355C24.2806 18.9824 23.7598 19.4023 23.1152 19.6953C23.916 19.9818 24.5117 20.4115 24.9023 20.9844C25.2995 21.5573 25.498 22.2344 25.498 23.0156C25.498 24.2786 25.0358 25.291 24.1113 26.0527C23.1934 26.8145 21.9759 27.1953 20.459 27.1953C19.0397 27.1953 17.8776 26.821 16.9727 26.0723C16.0742 25.3236 15.625 24.334 15.625 23.1035H18.4473C18.4473 23.6374 18.6458 24.0736 19.043 24.4121C19.4466 24.7507 19.9414 24.9199 20.5273 24.9199C21.1979 24.9199 21.722 24.7441 22.0996 24.3926C22.4837 24.0345 22.6758 23.5625 22.6758 22.9766C22.6758 21.5573 21.8945 20.8477 20.332 20.8477H18.8379V18.6406Z" fill="#F3B12A"/>
<circle cx="20.5" cy="20.5" r="19.5" stroke="#F3B12A" stroke-width="2"/>
</svg>
